<svg xmlns="http://www.w3.org/2000/svg" style="display: none;">
    <defs>
        <symbol id="icon-home" viewBox="0 0 24 24">
            <path d="M10 20v-6h4v6h5v-8h3L12 3 2 12h3v8z"/>
        </symbol>

        <!-- Logotipo Marina -->

        <symbol id="icon-logo" viewBox="0 0 136 17" fill="none" xmlns="http://www.w3.org/2000/svg">
        <path d="M9.68967 13.9336V16.4756H0V0.000244141H2.53484V13.9336H9.68967Z" fill="var(--color-primary)"/>
        <path d="M24.1553 9.53223L21.6656 2.63662L19.1757 9.53223H24.1553ZM25.0749 12.0505H18.2564L16.6637 16.4758H13.9719L20.0507 0H23.2801L29.3588 16.4758H26.667L25.0747 12.0505H25.0749Z" fill="var(--color-primary)"/>
        <path d="M54.8565 0.84436V16.2273H52.4899V4.20681L47.9666 11.3708H47.7363L43.2335 4.20681V16.2273H40.8669V0.84436H43.6519L47.8617 7.48122L52.071 0.84436H54.8565Z" fill="var(--color-primary)"/>
        <path d="M68.6348 0.84436H65.6195L59.9437 16.2273H62.4568L63.9439 12.0958L64.8024 9.74465L67.1273 3.30609L69.4517 9.74465L70.3105 12.0958L71.7971 16.2273H74.3105L68.6348 0.84436Z" fill="var(--color-primary)"/>
        <path d="M81.7637 8.29404H85.1984C87.1456 8.29404 88.0465 7.23942 88.0465 5.74532C88.0465 4.25076 87.125 3.21789 85.1984 3.21789H81.7637V8.29404ZM84.0258 10.4919H81.7637V16.2276H79.3971V0.84436H85.4492C88.6325 0.84436 90.434 2.8222 90.434 5.72297C90.434 8.2504 89.0725 9.89825 86.7476 10.3599L91.1249 16.2276H88.2139L84.0258 10.4919Z" fill="var(--color-primary)"/>
        <path d="M99.0375 0.844238H96.6709V16.2272H99.0375V0.844238Z" fill="var(--color-primary)"/>
        <path d="M117.716 0.84436V16.2273H114.91L107.58 4.33896L107.81 9.78845V16.2275H105.444V0.844507H108.229L115.559 12.7113L115.35 7.28352V0.844507L117.716 0.84436Z" fill="var(--color-primary)"/>
        <path d="M130.324 0.84436H127.309L121.633 16.2273H124.147L125.634 12.0958L126.492 9.74465L128.817 3.30609L131.141 9.74465L132 12.0958L133.487 16.2273H136L130.325 0.84436H130.324Z" fill="var(--color-primary)"/>
        <path d="M62.6573 14.2064L61.5149 12.5452C64.651 10.1711 70.6629 8.99784 75.4107 8.53571L75.5905 10.5756C71.249 10.9982 65.4733 12.0744 62.6573 14.2064Z" fill="var(--color-primary)"/>
        <path d="M132.417 9.20978H125.422V11.2581H132.417V9.20978Z" fill="var(--color-primary)"/>
        <path d="M101.338 14.2433H94.4224V16.2917H101.338V14.2433Z" fill="var(--color-primary)"/>
        <path d="M101.269 0.611267H94.3531V2.65961H101.269V0.611267Z" fill="var(--color-primary)"/>
        </symbol>

        <!--   Ilustración barco   -->

        <symbol id="icon-boat" width="92" height="92" viewBox="0 0 92 92" fill="none" xmlns="http://www.w3.org/2000/svg">
        <path d="M66.592,88.662L15.13,88.662C15.13,86.842 14.406,85.096 13.119,83.809C11.832,82.522 9.086,81.798 7.266,81.798L7.266,66.484L84.734,66.484C84.734,71.034 82.93,80.398 79.716,83.618C76.502,86.839 71.142,88.653 66.592,88.662Z" style="fill:none;fill-rule:nonzero;stroke:rgb(10,55,255);stroke-width:3.5px;"/>
        <path d="M46,2.744L46,66.484" style="fill:none;fill-rule:nonzero;stroke:rgb(10,55,255);stroke-width:3.5px;stroke-linecap:round;"/>
        <path d="M46,21.886L28.858,21.886L32.272,15.058L28.858,8.194L46,8.194L46,21.886Z" style="fill:none;fill-rule:nonzero;stroke:rgb(10,55,255);stroke-width:4px;stroke-linecap:round;stroke-linejoin:round;"/>
        <path d="M46,21.922C46,39.064 25.408,66.484 15.13,66.484L76.87,66.484C76.87,39.064 56.278,8.194 46,8.194L46,21.922Z" style="fill:none;fill-rule:nonzero;stroke:rgb(10,55,255);stroke-width:3.px;"/>
         </symbol>
        <!--   Ilustración olas  -->

        <symbol id="lineas-olas" fill="none" height="21" viewBox="0 0 1440 21" width="1440" xmlns="http://www.w3.org/2000/svg">
        <path d="m1439.8 18.1726c-26.67 0-26.67-16.1726-53.33-16.1726s-26.66 16.1726-53.32 16.1726-26.66-16.1726-53.32-16.1726c-26.67 0-26.67 16.1726-53.33 16.1726s-26.66-16.1726-53.32-16.1726c-26.67 0-26.67 16.1726-53.33 16.1726s-26.66-16.1726-53.32-16.1726-26.66 16.1726-53.32 16.1726-26.66-16.1726-53.319-16.1726c-26.661 0-26.661 16.1726-53.32 16.1726-26.662 0-26.662-16.1726-53.322-16.1726-26.664 0-26.664 16.1726-53.328 16.1726-26.661 0-26.661-16.1726-53.323-16.1726-26.663 0-26.663 16.1726-53.326 16.1726-26.661 0-26.661-16.1726-53.323-16.1726s-26.662 16.1726-53.325 16.1726c-26.662 0-26.662-16.1726-53.324-16.1726-26.664 0-26.664 16.1726-53.329 16.1726s-26.665-16.1726-53.329-16.1726-26.664 16.1726-53.329 16.1726c-26.66 0-26.66-16.1726-53.32-16.1726-26.665 0-26.665 16.1726-53.329 16.1726s-26.664-16.1726-53.329-16.1726c-26.666 0-26.666 16.1726-53.331 16.1726-26.666 0-26.666-16.1726-53.33-16.1726-26.669 0-26.669 16.1726-53.3369 16.1726-26.6692 0-26.6692-16.1726-53.3371-16.1726" stroke="#4164fe" stroke-width="4" fill="none"/>
        </symbol>

        <symbol id="figura-olas" fill="none" height="21" viewBox="0 0 1440 21" width="1440" xmlns="http://www.w3.org/2000/svg" xmlns:xlink="http://www.w3.org/1999/xlink" xml:space="preserve" xmlns:serif="http://www.serif.com/" style="fill-rule:evenodd;clip-rule:evenodd;stroke-linejoin:round;stroke-miterlimit:2;">
        <path d="M1439.8,16.173L1439.8,21L0,21L0,0C13.849,0 20.78,4.177 27.705,8.376C34.115,12.263 40.518,16.173 53.337,16.173C66.156,16.173 72.559,12.263 78.968,8.376C85.893,4.177 92.824,0 106.674,0C120.521,0 127.452,4.177 134.375,8.376C140.784,12.263 147.186,16.173 160.004,16.173C172.821,16.173 179.223,12.263 185.632,8.376C192.556,4.177 199.487,0 213.335,0C227.183,0 234.113,4.177 241.037,8.376C247.446,12.263 253.847,16.173 266.664,16.173C279.481,16.173 285.882,12.263 292.291,8.376C299.215,4.177 306.145,0 319.993,0C333.838,0 340.768,4.177 347.69,8.376C354.098,12.263 360.498,16.173 373.313,16.173C386.13,16.173 392.532,12.263 398.941,8.376C405.864,4.177 412.795,0 426.642,0C440.489,0 447.42,4.177 454.343,8.376C460.752,12.263 467.154,16.173 479.971,16.173C492.788,16.173 499.19,12.263 505.599,8.376C512.522,4.177 519.453,0 533.3,0C547.146,0 554.076,4.177 560.999,8.376C567.407,12.263 573.808,16.173 586.624,16.173C599.44,16.173 605.842,12.263 612.25,8.376C619.173,4.177 626.103,0 639.949,0C653.795,0 660.725,4.177 667.648,8.376C674.056,12.263 680.457,16.173 693.272,16.173C706.088,16.173 712.49,12.263 718.898,8.376C725.821,4.177 732.751,0 746.598,0C760.444,0 767.374,4.177 774.297,8.376C780.705,12.263 787.106,16.173 799.921,16.173C812.738,16.173 819.139,12.263 825.548,8.376C832.471,4.177 839.402,0 853.249,0C867.094,0 874.024,4.177 880.947,8.376C887.354,12.263 893.755,16.173 906.571,16.173C919.385,16.173 925.786,12.263 932.193,8.376C939.116,4.177 946.045,0 959.891,0C973.736,0 980.665,4.177 987.587,8.376C993.995,12.263 1000.395,16.173 1013.21,16.173C1026.025,16.173 1032.425,12.263 1038.833,8.376C1045.755,4.177 1052.685,0 1066.53,0C1080.375,0 1087.305,4.177 1094.227,8.376C1100.635,12.263 1107.035,16.173 1119.85,16.173C1132.665,16.173 1139.065,12.263 1145.474,8.376C1152.398,4.177 1159.33,0 1173.18,0C1187.025,0 1193.955,4.177 1200.877,8.376C1207.285,12.263 1213.685,16.173 1226.5,16.173C1239.315,16.173 1245.715,12.263 1252.124,8.376C1259.048,4.177 1265.98,0 1279.83,0C1293.675,0 1300.605,4.177 1307.527,8.376C1313.935,12.263 1320.335,16.173 1333.15,16.173C1345.965,16.173 1352.365,12.263 1358.773,8.376C1365.695,4.177 1372.625,0 1386.47,0C1400.315,0 1407.245,4.177 1414.168,8.376C1420.577,12.263 1426.98,16.173 1439.8,16.173Z" style="fill:rgb(65,100,254);"/>
        </symbol>

        <!--   Icon estrella  -->
        <symbol id="icon-star" width="16" height="16" viewBox="0 0 16 16" fill="none" xmlns="http://www.w3.org/2000/svg">
        <path d="M6.99881 0.631766C7.33239 -0.21073 8.52479 -0.210729 8.85836 0.631767L10.2577 4.16608C10.4003 4.52625 10.7381 4.77166 11.1247 4.79598L14.9185 5.03468C15.8228 5.09158 16.1913 6.22563 15.4931 6.80322L12.5642 9.22624C12.2657 9.47316 12.1367 9.87024 12.233 10.2454L13.1783 13.9273C13.4037 14.8049 12.439 15.5058 11.6739 15.0203L8.46441 12.9835C8.13735 12.7759 7.71983 12.7759 7.39276 12.9835L4.18325 15.0203C3.41818 15.5058 2.4535 14.8049 2.67884 13.9273L3.62416 10.2454C3.7205 9.87024 3.59148 9.47316 3.29301 9.22624L0.364092 6.80322C-0.334091 6.22563 0.0343843 5.09158 0.938725 5.03468L4.73248 4.79598C5.11909 4.77166 5.45686 4.52625 5.59946 4.16608L6.99881 0.631766Z" fill="#FF5932"/>
        </symbol>

        <!--   Icon Menu  -->
        <symbol id="icon-menu" viewBox="0 0 24 24" fill="none" xmlns="http://www.w3.org/2000/svg">
        <path d="M4 18L20 18" stroke="#000000" stroke-width="2" stroke-linecap="round"/>
        <path d="M4 12L20 12" stroke="#000000" stroke-width="2" stroke-linecap="round"/>
        <path d="M4 6L20 6" stroke="#000000" stroke-width="2" stroke-linecap="round"/>
        </symbol>

    <!--   Logo empresa 1  -->
    <symbol
            id="logo-empresa-1"
            
            viewBox="0 0 130.93733 36.959998"
            sodipodi:docname="Entain Logo 2020.svg"
            inkscape:version="1.2 (dc2aedaf03, 2022-05-15)"
            xmlns:inkscape="http://www.inkscape.org/namespaces/inkscape"
            xmlns:sodipodi="http://sodipodi.sourceforge.net/DTD/sodipodi-0.dtd"
            xmlns="http://www.w3.org/2000/svg"
            xmlns:svg="http://www.w3.org/2000/svg">
    <defs  id="defs6">
    <clipPath clipPathUnits="userSpaceOnUse" id="clipPath16">
      <path
         d="M 0,0 H 595.275 V 841.89 H 0 Z"
         id="path14" />
    </clipPath>
    <clipPath
       clipPathUnits="userSpaceOnUse"
       id="clipPath32">
      <path
         d="M 0,0 H 595.276 V 841.89 H 0 Z"
         id="path30" />
    </clipPath>
    <clipPath
       clipPathUnits="userSpaceOnUse"
       id="clipPath44">
      <path
         d="M 34.5118,719.794 H 560.592 V 127.474 H 34.5118 Z"
         id="path42" />
    </clipPath>
    <mask
       maskUnits="userSpaceOnUse"
       x="0"
       y="0"
       width="1"
       height="1"
       id="mask46">
      <g
         id="g54">
        <g
           clip-path="url(#clipPath44)"
           id="g52">
          <g
             id="g50">
            <g
               transform="matrix(526.07999,0,0,592.31999,34.511812,127.47392)"
               id="g48" />
          </g>
        </g>
      </g>
    </mask>
    <clipPath
       clipPathUnits="userSpaceOnUse"
       id="clipPath62">
      <path
         d="M 44.5918,710.674 H 550.512 V 131.314 H 44.5918 Z"
         id="path60" />
    </clipPath>
    <clipPath
       clipPathUnits="userSpaceOnUse"
       id="clipPath84">
      <path
         d="M 44.41,77.953 H 561.26 V 763.147 H 44.41 Z"
         id="path82" />
    </clipPath>
  </defs>
  <sodipodi:namedview
     id="namedview4"
     pagecolor="#505050"
     bordercolor="#eeeeee"
     borderopacity="1"
     inkscape:showpageshadow="0"
     inkscape:pageopacity="0"
     inkscape:pagecheckerboard="0"
     inkscape:deskcolor="#505050"
     showgrid="false"
     inkscape:zoom="8.2041821"
     inkscape:cx="74.0476"
     inkscape:cy="23.707421"
     inkscape:window-width="1920"
     inkscape:window-height="1001"
     inkscape:window-x="-9"
     inkscape:window-y="-9"
     inkscape:window-maximized="1"
     inkscape:current-layer="g8" />
  <g
     id="g8"
     inkscape:groupmode="layer"
     inkscape:label="Entain-ESG-2021-FINAL"
     transform="matrix(1.3333333,0,0,-1.3333333,-68.031732,1054.4888)">
    <g
       id="g26">
      <g
         id="g28"
         clip-path="url(#clipPath32)">
        <g
           id="g34"
           transform="translate(103.1528,781.5936)">
          <path
             d="m 0,0 v -4.235 h -3.157 l 10e-4,-13.839 H -8.211 L -8.213,-4.235 H -10.15 V 0 h 1.937 v 5.395 h 5.057 L -3.157,0 Z m 26.037,0.01 h -4.973 v -18.084 h 4.973 z m -2.486,8.202 c -0.786,0 -1.454,-0.276 -2.007,-0.828 -0.552,-0.553 -0.828,-1.222 -0.828,-2.007 0,-0.786 0.276,-1.45 0.828,-1.989 0.553,-0.54 1.221,-0.81 2.007,-0.81 0.81,0 1.485,0.27 2.026,0.81 0.539,0.539 0.81,1.203 0.81,1.989 0,0.785 -0.271,1.454 -0.81,2.007 -0.541,0.552 -1.216,0.828 -2.026,0.828 m 5.07,-26.289 h 5.116 v 9.042 c 0,3.094 1.656,4.286 3.456,4.418 1.876,0.139 3.758,-0.501 3.758,-3.879 v -9.581 h 5.115 l 0.008,11.007 c 0,1.055 -0.16,2.03 -0.479,2.927 -0.319,0.896 -0.786,1.663 -1.399,2.302 -0.614,0.638 -1.363,1.141 -2.246,1.509 -0.884,0.369 -1.903,0.553 -3.057,0.553 -1.203,0 -2.283,-0.27 -3.241,-0.81 -0.957,-0.54 -1.718,-1.13 -2.283,-1.768 L 32.897,0.002 28.61,0 Z m -57.212,0 h 5.116 v 9.042 c 0,3.094 1.656,4.286 3.456,4.418 1.877,0.139 3.758,-0.501 3.758,-3.879 v -9.581 h 5.116 l 0.007,11.007 c 0,1.055 -0.159,2.03 -0.478,2.927 -0.32,0.896 -0.786,1.663 -1.399,2.302 -0.615,0.638 -1.363,1.141 -2.247,1.509 -0.884,0.369 -1.903,0.553 -3.056,0.553 -1.204,0 -2.284,-0.27 -3.242,-0.81 -0.957,-0.54 -1.718,-1.13 -2.282,-1.768 L -24.314,0.002 -28.602,0 Z M 18.492,0.01 v -18.084 h -4.268 l -0.346,1.866 c -1.334,-1.38 -3.095,-2.239 -5.159,-2.239 -4.771,0 -8.639,4.445 -8.639,9.61 0,5.165 3.868,9.095 8.639,9.095 2.167,0 3.999,-0.824 5.355,-2.199 L 14.592,0.01 Z M 9.305,-13.865 c 2.451,0 4.438,2.184 4.438,4.88 0,2.694 -1.987,4.879 -4.438,4.879 -2.451,0 -4.438,-2.185 -4.438,-4.879 0,-2.696 1.987,-4.88 4.438,-4.88 M -52.129,9.273 V 5.356 l 8.755,-9.573 -8.719,-9.841 v -4.019 l 21.224,0.002 v 9.24 h -4.755 V -13.1 h -9.117 l 7.719,9.015 -7.903,8.567 8.953,-0.001 V 0.766 h 4.756 l -0.003,8.507 z"
             style="fill:#bf00ff;fill-opacity:1;fill-rule:nonzero;stroke:none"
             id="path36" />
        </g>
        <g
           id="g38">
          <g
             id="g40" />
          <g
             id="g56"
             mask="url(#mask46)">
            <g
               id="g58" />
            <g
               id="g68">
              <g
                 clip-path="url(#clipPath62)"
                 id="g66">
                <path
                   d="m 44.592,710.674 h 505.92 V 131.314 H 44.592 Z"
                   style="mix-blend-mode:screen;fill:#bf00ff;fill-opacity:0.649994;fill-rule:nonzero;stroke:none"
                   id="path64" />
              </g>
            </g>
          </g>
        </g>
      </g>
    </g>
  </g>
</symbol>



    <!--   Logo empresa 2  -->




     <!--   Ilustración PERSONA 1  -->

    <symbol id="ilustracion-1" width="100%" height="100%" viewBox="0 0 595 896" version="1.1" xmlns="http://www.w3.org/2000/svg" xmlns:xlink="http://www.w3.org/1999/xlink" xml:space="preserve" xmlns:serif="http://www.serif.com/" style="fill-rule:evenodd;clip-rule:evenodd;stroke-linecap:round;stroke-linejoin:round;stroke-miterlimit:1.5;">
    <g id="Mesa-de-trabajo1" serif:id="Mesa de trabajo1" transform="matrix(0.458282,0,0,1.076923,-293.427389,-6127.692308)">
        <rect x="640.277" y="5690" width="1297.723" height="832" style="fill:rgb(65,100,254);"/>
        <g transform="matrix(2.182063,0,0,0.928571,-277.884995,4401.935937)">
            <g transform="matrix(1.131234,-0.352776,0.619297,1.059519,-3133.123657,-235.685746)">
                <path d="M2073,2844L2043.872,2832.73" style="fill:none;stroke:black;stroke-width:4.68px;"/>
            </g>
            <g transform="matrix(1.203903,-0.318105,0.704182,1.100018,-3533.464128,-393.923819)">
                <path d="M2073,2844L2043.792,2832.636" style="fill:none;stroke:black;stroke-width:4.29px;"/>
            </g>
            <g transform="matrix(1,0,0,1,227.131809,1579.66909)">
                <path d="M480.923,375.05C556.659,375.05 620.519,370.482 620.519,370.482L658.859,362.834C658.859,362.834 681.397,383.646 687.881,416.733C689.175,423.34 679.942,438.717 680.266,446.983C681.677,482.896 683.495,473.171 647.087,512.26C639.408,520.505 639.224,524.59 577.149,523.229C563.403,522.928 565.339,490.396 535.553,485.413C526.31,483.866 512.247,486.753 499.134,453.737C490.19,431.215 462.268,385.56 470.871,377.079"/>
                <path d="M474.684,370.045C476.151,368.219 478.401,367.05 480.923,367.05C552.469,367.05 613.375,362.958 619.453,362.537L657.294,354.989C659.806,354.488 662.405,355.219 664.286,356.957C664.286,356.957 688.722,379.422 695.731,415.195C696.44,418.814 695.354,424.448 693.209,430.519C691.214,436.17 688.095,442.454 688.26,446.669C688.88,462.439 689.284,470.186 687.332,476.56C685.978,480.979 683.648,484.899 679.418,489.827C674.375,495.702 666.16,503.521 652.941,517.712C644.571,526.699 644.632,532.711 576.974,531.228C570.204,531.079 565.119,527.025 560.882,520.003C558.517,516.082 556.276,511.055 553.114,506.222C549.341,500.456 544.002,494.938 534.233,493.303C528.863,492.405 522.164,492.507 514.832,488.325C507.54,484.167 499.275,475.764 491.699,456.689C485.392,440.809 469.754,413.494 463.89,395.614C462.031,389.948 461.12,385.021 461.262,381.327C461.431,376.927 462.965,373.639 465.254,371.382C467.821,368.852 471.67,368.411 474.684,370.045ZM477.362,382.215C477.558,383.748 478.12,387.661 479.093,390.628C484.872,408.248 500.354,435.134 506.569,450.784C512.108,464.73 517.427,471.387 522.758,474.427C528.048,477.443 532.999,476.874 536.873,477.522C554.799,480.522 563.368,491.564 569.335,502.148C571.276,505.591 572.897,508.946 574.582,511.737C575.139,512.661 575.694,513.509 576.293,514.235C576.64,514.655 576.809,515.22 577.325,515.231C601.593,515.763 616.184,515.477 625.435,514.386C636.236,513.112 637.728,510.57 641.233,506.807C652.148,495.088 659.626,487.76 664.707,482.273C668.681,477.983 670.991,475.278 672.033,471.875C673.637,466.636 672.782,460.259 672.272,447.297C672.079,442.375 674.424,435.257 676.932,428.465C677.899,425.848 678.848,423.283 679.471,420.989C679.765,419.903 680.17,418.989 680.03,418.272C675.413,394.709 661.975,377.9 656.163,371.53L622.084,378.327C621.756,378.393 621.424,378.437 621.09,378.461C621.09,378.461 556.968,383.05 480.923,383.05C479.644,383.05 478.435,382.749 477.362,382.215Z" style="fill-opacity:0;"/>
            </g>
            <g transform="matrix(1,0,0,1,218.777054,1578.145914)">
                <path d="M349.406,184.028C348.718,212.806 336.836,160.77 333.554,189.51C341.709,200.303 364.358,339.823 368.853,349.983C381.317,378.151 403.972,365.159 403.972,365.159C403.972,365.159 456.902,299.558 466.784,289.524C474.789,281.395 467.007,323.835 466.784,326.854C466.033,337 464.99,352.342 472.66,362.676C490.104,386.178 550.239,372.69 571.006,372.995C629.679,373.856 686.023,361.598 686.023,361.598L698.888,343.51L749.66,329.854L777.932,275.585L752.989,236.676C752.989,236.676 708.665,172.528 670.753,136.478C657.979,124.331 579.601,133.545 537.94,117.13C518.252,109.372 506.274,119.275 492.25,131.015C483.15,138.634 470.436,144.131 463.551,155.918C424.282,223.137 388.557,272.822 388.557,272.822L361.166,184.262" style="fill:white;"/>
                <path d="M345.493,177.051C346.704,176.369 348.108,175.995 349.597,176.03C351.909,176.086 353.969,177.118 355.392,178.723C356.301,177.773 357.457,177.035 358.802,176.619C363.02,175.314 367.504,177.68 368.808,181.898L391.367,254.834C404.448,235.807 429.707,197.992 456.643,151.882C464.021,139.253 477.364,133.044 487.115,124.881C503.52,111.147 517.841,100.612 540.873,109.687C569.404,120.928 615.568,119.634 644.967,122.072C653.312,122.764 660.429,123.756 665.687,125.252C670.469,126.613 674.007,128.533 676.266,130.68C714.658,167.187 759.571,232.129 759.571,232.129C759.623,232.204 759.674,232.281 759.724,232.359L784.667,271.267C786.215,273.681 786.352,276.738 785.027,279.281L756.755,333.55C755.721,335.536 753.901,336.998 751.738,337.58L703.741,350.489L692.542,366.235C691.388,367.858 689.67,368.992 687.724,369.415C687.724,369.415 630.49,381.869 570.888,380.994C558.367,380.81 531.603,385.59 508.41,384.362C490.334,383.406 474.434,378.488 466.236,367.444C457.395,355.532 457.94,337.959 458.806,326.264C458.901,324.97 460.388,316.427 461.422,307.733C442.811,329.735 410.199,370.182 410.199,370.182C409.575,370.955 408.813,371.605 407.952,372.099C407.952,372.099 397.004,378.392 384.629,375.247C376.764,373.248 367.919,367.643 361.538,353.22C358.35,346.016 345.969,274.64 336.103,228.691C333.65,217.264 331.353,207.463 329.384,200.767C328.499,197.758 327.166,194.46 327.044,194.161C325.895,192.552 325.38,190.572 325.605,188.602C326.298,182.535 327.604,179.064 328.741,177.273C329.54,176.013 330.425,175.121 331.284,174.467L334.123,172.98L336.72,172.536L339.127,172.783C340.558,173.118 342.12,173.838 343.633,175.122C344.227,175.627 344.854,176.283 345.493,177.051ZM355.997,194.624C355.939,194.785 355.881,194.935 355.823,195.074L353.84,198.193L350.863,200.3L347.713,201.019L346.001,200.808C347.753,207.389 349.705,215.821 351.747,225.332C361.36,270.105 373.063,339.726 376.169,346.746C379.761,354.864 384.143,358.615 388.57,359.74C392.95,360.853 396.967,359.562 398.857,358.761C406.56,349.235 451.975,293.16 461.084,283.911C462.589,282.382 464.02,281.57 465.186,281.122L467.547,280.545L470.406,280.689L473.118,281.754L475.089,283.334C476.009,284.305 476.926,285.702 477.523,287.635C478.33,290.247 478.57,295.251 478.15,301.075C477.383,311.692 474.887,325.753 474.762,327.444C474.126,336.044 472.583,349.149 479.084,357.908C484.846,365.67 496.55,367.712 509.256,368.385C532.223,369.6 558.724,364.814 571.123,364.996C620.944,365.727 669.058,356.849 681.327,354.398L692.369,338.873C693.446,337.359 695.016,336.267 696.81,335.785L744.189,323.041L768.696,276L746.323,241.102C744.183,238.014 701.718,176.961 665.24,142.275C664.083,141.174 661.896,140.715 659.163,140.099C654.939,139.147 649.658,138.516 643.645,138.017C612.945,135.471 564.801,136.312 535.007,124.573C518.653,118.129 509.035,127.397 497.385,137.149C492.711,141.062 487.122,144.449 481.804,148.352C477.49,151.519 473.327,155.042 470.459,159.953C430.976,227.539 395.052,277.492 395.052,277.492C393.28,279.957 390.265,281.206 387.269,280.718C384.272,280.229 381.811,278.086 380.914,275.186L355.997,194.624Z" style="fill-opacity:0;"/>
            </g>
            <g transform="matrix(1,0,0,1,218.777054,1578.145914)">
                <path d="M649.395,322.854C633.867,321.85 617.705,313.357 615.587,317.854C606.854,336.4 520.854,343.51 520.854,343.51C520.854,343.51 496.526,254.322 491.246,239.474C488.79,232.566 495.277,227.252 502.685,222.665C503.86,221.937 523.821,209.71 547.127,207.742C574.763,205.407 588.252,209.949 588.252,209.949C588.252,209.949 597.935,194.1 634.814,191.47C663.356,189.434 689.121,197.079 689.121,197.079C689.121,197.079 704.241,278.799 704.255,280.676C688.199,280.182 665.943,255.714 665.845,266.344C665.723,279.714 669.414,296.881 665.533,305.34C664.758,307.03 659.84,293.011 658.753,295.439C653.516,307.13 653.686,305.405 649.395,322.854Z" style="fill:rgb(65,100,254);"/>
            </g>
            <g transform="matrix(1.058225,0,0,1.058225,-1219.553389,-903.109466)">
                <path d="M1826.278,2469.034C1826.278,2469.034 1835.564,2402.373 1838.254,2395.591C1846.987,2373.581 1868.48,2358 1893.584,2358C1926.423,2358 1946.47,2384.661 1953.084,2417.5C1954.121,2422.647 1962.895,2465.254 1962.895,2465.254" style="fill:white;stroke:black;stroke-width:5.91px;"/>
            </g>
            <g transform="matrix(0.944022,0,0,0.944022,-638.089871,-705.366876)">
                <path d="M1671.367,2721.533C1642.841,2721.533 1615.289,2698.803 1615.289,2698.803L1614.677,2738.323C1614.677,2738.323 1594.98,2764.541 1583.214,2782.799C1728.18,2782.008 1700.337,2769.177 1731.149,2714.956C1738.819,2701.46 1661.578,2609.719 1626.754,2569.48C1616.575,2557.749 1601.051,2552.118 1585.718,2554.595C1567.27,2557.573 1542.31,2561.605 1525.05,2564.393C1511.796,2566.534 1498.257,2566.163 1485.139,2563.301C1476.879,2561.498 1466.992,2559.341 1457.401,2557.248C1434.336,2552.214 1410.654,2562.608 1398.743,2582.991C1373.509,2626.177 1332.573,2696.233 1326.092,2707.325C1325.908,2707.639 1325.573,2707.833 1325.209,2707.835C1324.845,2707.838 1324.507,2707.648 1324.319,2707.337C1322.266,2703.933 1317.402,2695.869 1317.402,2695.869" style="fill:none;stroke:black;stroke-width:6.62px;"/>
            </g>
            <g transform="matrix(1,0,0,1,-1123.057392,-807)">
                <path d="M1808.618,2674.67C1808.618,2674.67 1772.427,2720.05 1752.307,2745.28C1749.085,2749.32 1744.222,2751.704 1739.055,2751.777C1733.888,2751.85 1728.96,2749.605 1725.625,2745.658C1725.624,2745.657 1725.624,2745.656 1725.624,2745.656" style="fill:none;stroke:black;stroke-width:6.25px;"/>
            </g>
            <g transform="matrix(0.91725,0,0,0.91725,-602.7141,-634.096026)">
                <path d="M1410.236,2668.593C1410.236,2668.593 1404.651,2764.485 1404.498,2794.088C1404.401,2812.843 1431.568,2825.734 1463.594,2824.498C1510.52,2822.686 1641.551,2807.158 1641.551,2807.158C1641.551,2807.158 1644.093,2808.744 1647.942,2802.058C1652.015,2794.983 1657.541,2786.321 1657.541,2786.321" style="fill:none;stroke:black;stroke-width:6.81px;"/>
            </g>
            <g transform="matrix(1.060366,0,0,1.060366,-816.667873,-1017.489478)">
                <path d="M1430.025,2803.004C1430.025,2803.004 1319.903,2919.68 1298.347,2947.164C1270.619,2982.517 1328.358,3043.281 1365.788,3016.54C1389.912,2999.304 1502.714,2905.047 1502.714,2905.047" style="stroke:white;stroke-width:5.89px;"/>
            </g>
            <g transform="matrix(1.060366,0,0,1.060366,-816.667873,-1017.489478)">
                <path d="M1530.843,2860.718C1530.843,2860.718 1489.901,2920.566 1453.217,2974.191C1443.974,2987.702 1443.906,3005.485 1453.046,3019.066C1462.186,3032.648 1478.685,3039.282 1494.682,3035.807C1548.796,3024.055 1605.109,3011.825 1605.109,3011.825C1605.794,3009.078 1638.187,2913.597 1651.057,2879.293C1654.65,2869.717 1657.172,2866.968 1656.942,2863.616C1656.748,2860.786 1651.972,2857.511 1649.68,2859.181C1632.639,2871.604 1554.701,2938.152 1554.701,2938.152" style="stroke:white;stroke-width:5.89px;"/>
            </g>
            <g transform="matrix(1.060366,0,0,1.544092,-851.052475,-2377.569485)">
                <path d="M1656.942,2857.436C1666.539,2832.758 1667.995,2822.138 1652.521,2811.898" style="stroke:white;stroke-width:4.72px;"/>
            </g>
            <g transform="matrix(1.060366,0,0,1.060366,-816.667873,-1017.489478)">
                <path d="M1530.794,2860.718L1410.851,2920.823" style="fill:none;stroke:white;stroke-width:5.89px;"/>
            </g>
            <g transform="matrix(1.060366,0,0,1.060366,-775.313613,-1029.1535)">
                <path d="M1649.27,2898.598C1712.437,2894.76 1672.407,2929.977 1662.808,2967.82C1662.279,2969.903 1656.669,2997.02 1654.354,2998.316C1650.392,3000.536 1639.67,2998.372 1592.978,3004.172C1592.53,2970.575 1589.113,2969.93 1632.942,2964.974C1633.408,2951.294 1634.364,2930.575 1634.364,2930.575C1634.364,2930.575 1648.349,2929.044 1650.562,2916.033C1651.892,2908.214 1649.27,2898.598 1649.27,2898.598Z" style="fill:white;stroke:black;stroke-width:5.89px;"/>
            </g>
            <g transform="matrix(1.943824,-0.514513,0.179998,0.680029,-1257.04037,1042.04807)">
                <rect x="862" y="1796.644" width="22" height="36.356" style="fill:white;"/>
            </g>
            <g transform="matrix(1,0,0,1,6,-18)">
                <g transform="matrix(1,0,0,1,263.777054,1578.145914)">
                    <path d="M258.131,164.299C259.376,163.1 260.886,161.819 263.599,159.82C266.408,157.75 270.233,157.739 273.053,159.792C275.873,161.845 277.038,165.489 275.932,168.797C275.67,169.581 275.376,170.395 275.061,171.222C275.78,171.371 276.473,171.59 277.135,171.875C277.152,171.883 277.17,171.89 277.187,171.898C277.476,171.599 277.796,171.301 278.149,171.008C280.407,169.139 285.101,167.123 288.913,166.754C291.649,166.489 294.055,167.004 295.766,167.877C297.179,168.597 299.069,170.182 300.573,172.846C302.895,176.957 305.322,185.533 305.611,186.593C305.899,187.653 306.999,190.979 306.005,200.315C305.628,203.855 302.957,206.72 299.452,207.344C299.092,207.408 298.731,207.447 298.373,207.462C297.077,208.568 295.43,209.26 293.641,209.364C293.573,209.368 293.506,209.371 293.439,209.373C293.051,209.532 292.764,209.651 292.518,209.716L290.285,210.027L287.634,209.662L284.905,208.36L282.64,206.087L281.737,204.052C280.404,205.574 278.711,207.008 276.606,208.383C274.2,209.955 271.136,210.115 268.579,208.803C266.023,207.492 264.366,204.909 264.239,202.039C264.199,201.125 264.019,197.499 265.032,192.409C264.144,192.777 263.349,192.984 262.702,193.082L259.188,192.906C258.874,194.058 258.488,195.115 258.002,196.058C256.069,199.809 253.817,201.315 252.275,202.001L250.197,202.645L247.849,202.764L245.614,202.293L243.8,201.428C242.454,200.597 241.024,199.19 239.943,197.138C239.303,195.922 238.666,193.88 238.177,192.081C238.141,192.088 238.107,192.094 238.075,192.101C236.46,192.409 235.052,192.373 233.96,192.165L231.783,191.457L230.182,190.474L227.977,187.95L226.955,185.227L226.838,182.168L227.549,179.481L229.454,176.633C230.589,175.432 234.141,173.239 243.565,159.698C246.087,156.074 251.077,155.18 254.701,157.702C256.941,159.26 258.138,161.761 258.131,164.299Z" style="fill:white;"/>
                </g>
                <g transform="matrix(2.998554,-0.162584,0.162584,2.998554,-3522.333121,-3403.083988)">
                    <path d="M1247.203,1781.566C1245.648,1783.26 1238.381,1788.979 1242.147,1792.136C1242.639,1792.549 1243.647,1793.006 1244.595,1792.86C1246.076,1792.632 1249.683,1787.814 1251.346,1785.28C1252.806,1783.056 1251.526,1781.748 1250.835,1781.129C1250.145,1780.51 1248.207,1780.473 1247.203,1781.566Z" style="fill:none;stroke:black;stroke-width:2.08px;"/>
                </g>
                <g transform="matrix(3.002959,0,0,3.002959,-3246.715156,-3610.742625)">
                    <path d="M1271.401,1793.272C1271.394,1792.083 1271.487,1793.764 1271.453,1792.392C1271.368,1788.958 1270.484,1785.31 1265.239,1783.235C1260.335,1781.295 1255.249,1795.817 1257.398,1796.929C1258.386,1797.44 1261.751,1800.337 1264.901,1789.903" style="fill:none;stroke:black;stroke-width:2.08px;"/>
                </g>
                <g transform="matrix(2.254416,0.710901,-0.903107,2.863941,-690.056275,-4259.089915)">
                    <path d="M1260.209,1786.071C1262.144,1780.135 1253.636,1779.67 1252.101,1783.665" style="fill:none;stroke:black;stroke-width:2.31px;"/>
                </g>
                <g transform="matrix(2.451483,-0.132921,0.147309,2.716829,-2811.13118,-2933.496536)">
                    <path d="M1245.05,1791.418C1243.195,1794.303 1245.338,1796.426 1246.792,1796.929C1250.344,1798.157 1254.875,1791.526 1255.425,1791.096" style="fill:none;stroke:black;stroke-width:2.41px;"/>
                </g>
            </g>
            <g transform="matrix(1.17307,0,0,1.17307,-1497.823929,-1329.594168)">
                <path d="M2024.905,2732.655L2009.06,2702.706C1996.176,2686.443 2004.287,2671.845 1999.84,2667.303C1999.322,2666.774 1995.564,2662.935 1990.732,2665.617C1987.503,2667.409 1989.477,2690.633 1979.781,2690.644C1971.651,2690.654 1955.312,2678.551 1946.42,2673.782C1943.498,2672.214 1941.443,2673.669 1939.718,2675.557C1936.793,2678.759 1938.292,2682.033 1938.839,2682.588C1942.965,2686.773 1962.928,2698.407 1964.877,2699.423C1961.925,2698.977 1934.024,2697.118 1930.325,2697.137C1928.057,2697.148 1925.574,2698.618 1925.596,2702.087C1925.625,2706.409 1927.235,2707.467 1929.605,2707.719C1932.199,2707.995 1960.667,2711.51 1963.532,2711.645C1960.794,2712.733 1935.594,2724.426 1932.03,2726.169C1929.85,2727.236 1928.581,2729.475 1929.423,2732.211C1930.824,2736.76 1933.634,2736.351 1935.945,2735.957C1939.461,2735.358 1961.629,2729.215 1971.014,2726.691C1979.619,2727.284 1979.301,2730.304 1996.286,2728.433C1996.86,2728.37 2003.073,2727.686 2003.393,2729.744L2015.879,2753.966" style="fill:white;stroke:black;stroke-width:5.33px;"/>
            </g>
            <g transform="matrix(0.729393,0,0,0.729393,-597.450632,-111.431407)">
                <path d="M1893.584,2358C1913.812,2357.764 1953.084,2417.132 1953.084,2417.5C1953.084,2450.339 1926.423,2477 1893.584,2477C1860.745,2477 1834.084,2450.339 1834.084,2417.5C1834.084,2416.661 1865.67,2358.325 1893.584,2358Z" style="fill:none;stroke:black;stroke-width:8.57px;"/>
            </g>
            <g transform="matrix(0.729393,0,0,0.729393,-564.454134,-92.131447)">
                <path d="M1864.903,2378.467L1864.903,2388.679" style="fill:none;stroke:black;stroke-width:8.57px;"/>
            </g>
            <g transform="matrix(0.729393,0,0,0.729393,-588.440243,-92.131447)">
                <path d="M1864.903,2378.467L1864.903,2388.679" style="fill:none;stroke:black;stroke-width:8.57px;"/>
            </g>
            <g transform="matrix(1,0,0,1,-1123.057392,-807)">
                <path d="M2036.63,2954L2097.759,2949.498C2097.759,2942.878 2102.372,2920.471 2108.671,2903.833C2114.318,2888.916 2126.99,2863.912 2129.48,2857.293" style="fill:none;stroke:black;stroke-width:6.25px;"/>
            </g>
            <g transform="matrix(1,0,0,1,-1121.038648,-806.89919)">
                <path d="M2079.497,2907.14L2086.787,2907.14" style="fill:none;stroke:black;stroke-width:6.25px;"/>
            </g>
            <g transform="matrix(1,0,0,1,-1120.536234,-818.801615)">
                <path d="M2079.497,2907.14L2086.787,2907.14" style="fill:none;stroke:black;stroke-width:6.25px;"/>
            </g>
            <g transform="matrix(1.000194,-0.008186,-0.008186,1.345545,235.454112,1358.947065)">
                <path d="M506,263L507,220.788" style="fill:none;stroke:black;stroke-width:5.31px;"/>
            </g>
            <g transform="matrix(1.000194,-0.008186,-0.008186,1.345545,321.698872,1358.947065)">
                <path d="M506,263L507,220.788" style="fill:none;stroke:black;stroke-width:5.31px;"/>
            </g>
        </g>
        <g transform="matrix(0,0.568655,-2.195176,0,14233.246398,5258.151938)">
            <g transform="matrix(1.632925,0,0,0.994026,661.505079,5635.328554)">
                <path d="M212.533,115.658L212.533,265.342L173.942,312.377L173.068,278L105.621,278C98.635,278 92.963,272.328 92.963,265.342L92.963,115.658C92.963,108.672 98.635,103 105.621,103L199.875,103C206.861,103 212.533,108.672 212.533,115.658Z" style="fill:white;stroke:white;stroke-width:6.25px;"/>
            </g>
            <g transform="matrix(2.689118,0,-0,1.636973,483.250301,5599.293724)">
                <path d="M173.863,112.739L181.261,120.137L166.44,134.959L181.261,149.78L173.863,157.178L159.041,142.357L144.22,157.178L136.822,149.78L151.643,134.959L136.822,120.137L144.22,112.739L159.041,127.56L173.863,112.739Z" style="fill:rgb(65,100,254);"/>
            </g>
        </g>
        <g transform="matrix(1.053807,0,0,1.222098,-56.27174,-1385.381696)">
            <g transform="matrix(1.479035,0,0,0.759817,685.36912,5671.388643)">
                <ellipse cx="150.5" cy="1006" rx="150.5" ry="42" style="fill:white;"/>
            </g>
            <g transform="matrix(2.670526,0,0,0.800166,607.941515,5656.816741)">
                <path d="M162.184,210.95L162.184,956C162.184,964.061 155.292,965.857 146.803,970.605C146.803,970.605 62.507,969.758 62.507,961.697L62.507,205.747C62.507,205.747 101.944,185.038 119.742,175.692C124.917,172.974 130.918,174.305 134.987,179.073C144.87,190.657 162.184,210.95 162.184,210.95Z" style="fill:white;"/>
            </g>
            <g transform="matrix(2.070649,0,0,0.62739,670.034367,5782.223933)">
                <path d="M131.902,271L131.902,889" style="fill:none;stroke:black;stroke-width:6.82px;"/>
            </g>
            <g transform="matrix(2.070649,0,0,0.62739,703.094401,5775.829283)">
                <path d="M131.902,271L131.902,889" style="fill:none;stroke:black;stroke-width:6.82px;"/>
            </g>
            <g transform="matrix(1.933779,0,0,0.709594,655.575902,5722.99642)">
                <path d="M111.777,188L111.777,1004.474" style="fill:none;stroke:black;stroke-width:6.69px;stroke-linecap:butt;"/>
            </g>
            <g transform="matrix(1.870788,0,0,0.759817,674.532949,5682.026086)">
                <path d="M193.554,966.5C193.554,980.574 162.736,992 124.777,992C86.818,992 56,980.574 56,966.5" style="fill:none;stroke:black;stroke-width:6.56px;stroke-linecap:butt;"/>
            </g>
            <g transform="matrix(2.070649,0,0,0.759817,640.277054,5690)">
                <path d="M67.138,173L111.777,218L193.554,181.767" style="fill:white;stroke:black;stroke-width:6.25px;"/>
            </g>
            <g transform="matrix(0.42423,-0.422533,1.87485,-0.15567,513.49781,5930.298724)">
                <path d="M157,195L170,189" style="fill:none;stroke:black;stroke-width:6.57px;"/>
            </g>
            <g transform="matrix(1.151483,0.15567,0.42423,0.68797,577.742722,5669.072845)">
                <path d="M157,195L170,189" style="fill:none;stroke:black;stroke-width:6.57px;"/>
            </g>
            <g transform="matrix(1.038524,-0,0,0.381083,810.627712,6280.524504)">
                <path d="M111.777,188L184,156" style="fill:none;stroke:black;stroke-width:12.46px;"/>
            </g>
            <g transform="matrix(1.038524,-0,0,0.381083,803.135006,5874.208334)">
                <path d="M111.777,188L184,156" style="fill:none;stroke:black;stroke-width:12.46px;"/>
            </g>
        </g>
        <g transform="matrix(1.178191,0,0,0.501376,772.777744,5944.514266)">
            <circle cx="163.633" cy="940.302" r="16.302" style="fill:none;stroke:black;stroke-width:11.58px;stroke-linecap:butt;"/>
        </g>
        <g transform="matrix(-0.028416,0.713675,-2.46472,-0.017772,3227.462665,5609.8944)">
            <circle cx="163.633" cy="940.302" r="16.302" style="fill:white;stroke:black;stroke-width:6.47px;stroke-linecap:butt;"/>
        </g>
        <g transform="matrix(0.447057,-0.516376,1.975729,-0.190244,453.770253,5829.359429)">
            <path d="M157,195L170,189" style="fill:none;stroke:black;stroke-width:6.57px;"/>
        </g>
        <g transform="matrix(-0.028416,0.713675,-2.46472,-0.017772,3227.301563,5617.817357)">
            <path d="M153.59,956.72C153.59,956.72 159.134,956.605 163.633,956.605C172.63,956.605 179.935,949.3 179.935,940.302C179.935,931.305 172.63,924 163.633,924C154.635,924 155.38,924.095 155.38,924.095" style="fill:none;stroke:black;stroke-width:6.47px;stroke-linecap:butt;"/>
        </g>
        <g transform="matrix(2.182063,0,0,0.928571,592.129914,5577.642857)">
            <path d="M177,229L177,277L154.816,287L154.816,239L177,229Z" style="fill:white;stroke:black;stroke-width:6.25px;"/>
        </g>
    </g>
    </symbol>

        
    <!--   Ilustración PERSONA 2  -->

    <symbol id="ilustracion-2" viewBox="0 0 919 825" version="1.1" xmlns="http://www.w3.org/2000/svg" xmlns:xlink="http://www.w3.org/1999/xlink" xml:space="preserve" xmlns:serif="http://www.serif.com/" style="fill-rule:evenodd;clip-rule:evenodd;stroke-linecap:round;stroke-linejoin:round;stroke-miterlimit:1.5;">
    <g transform="matrix(1,0,0,1,-709,0)">
        <g id="Mesa-de-trabajo2" serif:id="Mesa de trabajo2" transform="matrix(1.316619,0,0,1.23503,-406.176218,0)">
            <rect x="847" y="0" width="698" height="668" style="fill:none;"/>
            <g transform="matrix(1.143022,0,0,1.249704,-278.227524,-174.324478)">
                <g transform="matrix(0.759521,0,0,0.740576,316.094668,0)">
                    <rect x="961.136" y="623" width="45.864" height="59" style="fill:none;stroke:rgb(67,102,254);stroke-width:5.47px;"/>
                </g>
                <g transform="matrix(0.759521,0,0,1.116958,378.546281,-256.692097)">
                    <rect x="961.136" y="623" width="45.864" height="59" style="fill:none;stroke:rgb(67,102,254);stroke-width:4.27px;"/>
                </g>
                <g transform="matrix(0.627334,0,0,1.92967,568.04812,-810.961724)">
                    <path d="M961.136,682L961.136,623L1002.687,623" style="fill:none;stroke:rgb(67,102,254);stroke-width:2.83px;"/>
                </g>
                <g transform="matrix(0.759521,0,0,0.740576,316.094668,0)">
                    <path d="M943,682L1254,682" style="fill:none;stroke:rgb(67,102,254);stroke-width:5.47px;"/>
                </g>
            </g>
            <g transform="matrix(1.233304,0,0,1.178069,-248.521351,78.11026)">
                <g transform="matrix(0.896021,0,0,1,-16.7638,8)">
                    <path d="M1215.546,150.907L1210.454,130.151C1210.454,130.151 1213.314,129.921 1216.056,129.7C1218.874,129.473 1221.414,131.394 1221.964,134.168C1223.337,141.103 1225.694,153 1225.694,153L1238.388,166.151" style="fill:none;stroke:black;stroke-width:4.3px;"/>
                </g>
                <g transform="matrix(1.399334,0,0,1.561721,-578.992379,-210.687017)">
                    <path d="M1192.587,270.014L1185.803,254.583L1159.921,227.202C1159.921,227.202 1161.933,225.722 1163.533,224.545C1164.62,223.746 1166.141,223.925 1167.012,224.956C1169.283,227.645 1173.252,232.343 1173.252,232.343" style="fill:none;stroke:black;stroke-width:2.75px;"/>
                </g>
                <g transform="matrix(0.896021,0,0,1,-16.7638,8)">
                    <path d="M1204.577,143.756L1195.849,120.336L1204.402,116.715L1210.454,130.361" style="fill:none;stroke:black;stroke-width:4.3px;"/>
                </g>
                <g transform="matrix(1.399334,0,0,1.561721,-578.096359,-209.788101)">
                    <path d="M1210.223,266.178C1210.223,266.178 1210.924,255.727 1211.366,249.132C1211.597,245.695 1210.841,242.264 1209.188,239.242C1204.856,231.32 1196.48,216.006 1196.48,216.006L1190.86,216.894L1195,236.289L1185.978,236.289" style="fill:none;stroke:black;stroke-width:2.75px;"/>
                </g>
            </g>
            <g transform="matrix(0.937925,0,0,0.999886,164.993746,39.082364)">
                <path d="M992.172,312.5C992.172,312.5 1006.488,393.913 1015.022,442.446C1016.45,450.565 1021.722,457.491 1029.168,461.031C1036.614,464.571 1045.313,464.286 1052.511,460.267C1082.996,443.246 1124.782,419.916 1124.782,419.916L1124.782,475.972L1374.55,472.972L1326,323L1315.649,315.375L1306.446,312.989L1254.85,314.505L1248.85,298.079L1211.939,324L1178,298L1167.957,314.505L1146.496,315.5L1064,377.025L1034.955,298.079L1042.874,282.791L1038.483,268.147L971.735,287.01L975.701,304.261L992.172,312.5Z" style="fill:rgb(65,100,254);"/>
            </g>
            <g transform="matrix(0.937925,0,0,0.999886,778.059034,-2317.14518)">
                <g transform="matrix(1,0,0,1,-615,-726)">
                    <path d="M953.532,3394.996C953.532,3394.996 967.788,3480.957 974.14,3519.257C975.857,3529.609 982.589,3538.437 992.116,3542.832C1001.644,3547.227 1012.73,3546.618 1021.718,3541.206C1051.174,3523.468 1086.142,3502.411 1086.142,3502.411" style="fill:none;stroke:black;stroke-width:5.06px;"/>
                </g>
                <g transform="matrix(1,0,0,1,-615,-726)">
                    <path d="M1088.942,3458.411L1083.341,3553.27" style="fill:none;stroke:black;stroke-width:5.06px;"/>
                </g>
                <g transform="matrix(1,0,0,1,-615,-726)">
                    <path d="M990.854,3382.71L1019.837,3474.495L1107.25,3397.995L1129,3398L1137.486,3380.575L1170.692,3406.485L1210.214,3381.759L1216.751,3396.641C1216.751,3396.641 1245.246,3394.658 1264.846,3393.294C1275.487,3392.553 1285.269,3399.146 1288.576,3409.287C1297.618,3437.014 1314.38,3488.411 1314.38,3488.411L1335.91,3553.969" style="fill:none;stroke:rgb(65,100,254);stroke-width:5.06px;"/>
                </g>
                <g transform="matrix(1,0,0,1,-615,-726)">
                    <path d="M1129.317,3398.459L1152.655,3409.495L1160.132,3427.651L1170.794,3407.836L1181.199,3427.651L1192.789,3409.587L1216.209,3397" style="fill:none;stroke:black;stroke-width:5.06px;"/>
                </g>
                <g transform="matrix(0.92273,-0.033747,0.036548,0.999332,-650.520303,-695.745881)">
                    <path d="M1182.479,3438.599L1177.064,3450.486L1191.635,3513.718L1169.552,3547.051L1145.758,3514.698L1163.048,3449.8L1160.231,3438.848L1172.519,3419.094L1182.479,3438.599Z" style="fill:rgb(241,241,241);stroke:black;stroke-width:5.26px;"/>
                </g>
                <g transform="matrix(0.999998,0.00029,0.00029,0.95309,-616.001064,-563.936174)">
                    <path d="M1258.384,3462.588L1257.792,3558.467" style="fill:none;stroke:black;stroke-width:5.18px;"/>
                </g>
                <g transform="matrix(-0.938053,0,0,0.938053,1494.66359,-335.125867)">
                    <path d="M1016.639,3076.509C1016.639,3076.509 1051,3121.206 1051,3128.5C1051,3159.683 1025.683,3185 994.5,3185C963.317,3185 938,3159.683 938,3128.5C938,3123.065 940.204,3112.832 940.204,3112.832L1016.639,3076.509Z" style="fill:none;stroke:black;stroke-width:5.4px;"/>
                </g>
                <g transform="matrix(0.729393,0,0,0.967273,-792.843804,293.999312)">
                    <path d="M1864.903,2378.467L1864.903,2388.679" style="fill:none;stroke:black;stroke-width:5.91px;"/>
                </g>
                <g transform="matrix(0.729393,0,0,0.967273,-816.829914,293.999312)">
                    <path d="M1864.903,2378.467L1864.903,2388.679" style="fill:none;stroke:black;stroke-width:5.91px;"/>
                </g>
                <g transform="matrix(-1.219895,0.272682,0.272682,1.219895,956.424378,-1391.640475)">
                    <path d="M941.562,3047.306C928.094,3044.357 918,3032.348 918,3018C918,3001.443 931.443,2988 948,2988C958.337,2988 967.46,2993.24 972.856,3001.206" style="fill:none;stroke:black;stroke-width:4.05px;"/>
                </g>
                <g transform="matrix(-1.098351,-0.195529,-0.195529,1.098351,3124.884047,303.215649)">
                    <path d="M1864.986,2459.884C1858.834,2457.457 1853.17,2457.325 1845.882,2449.127C1837.697,2439.92 1834.084,2424.495 1834.084,2417.5C1834.084,2405.463 1837.667,2394.256 1843.822,2384.888" style="fill:none;stroke:black;stroke-width:4.54px;"/>
                </g>
                <g transform="matrix(-1.115619,0,0,1.115619,2672.176622,-101.251812)">
                    <path d="M1868.164,2362.856C1875.197,2359.928 1885.496,2358 1893.584,2358C1926.423,2358 1948.603,2382.868 1948.603,2415.707C1948.603,2415.846 1959.289,2436.641 1959.289,2436.641L1950.88,2458.091" style="fill:none;stroke:black;stroke-width:4.54px;"/>
                </g>
            </g>
            <g transform="matrix(-0.030234,-0.999867,4.894634,-0.006176,-16032.806175,1402.194422)">
                <path d="M1258.384,3462.588L1257.792,3558.467" style="fill:none;stroke:black;stroke-width:1.35px;"/>
            </g>
            <g transform="matrix(0.843444,0,0,0.705802,236.609279,19.496355)">
                <path d="M1481,66L1481,697.793L1086.109,697.793" style="fill:none;stroke:black;stroke-width:6.26px;"/>
            </g>
            <g transform="matrix(1.062092,0,0,0.705802,-104.061808,19.496355)">
                <path d="M994.862,697.982L923.942,697.982C923.942,697.982 923.942,102.942 923.942,89.587C923.942,76.56 930.525,66 938.645,66L1496.868,66" style="fill:none;stroke:black;stroke-width:5.36px;"/>
            </g>
            <g transform="matrix(1.32692,0,0,1.414579,-264.755472,-234.288125)">
                <g transform="matrix(1,0,0,1,1433.496493,2939.19316)">
                    <path d="M-458.497,-2430.785C-458.497,-2430.785 -456.393,-2423.472 -455.527,-2420.463C-455.284,-2419.62 -454.93,-2418.814 -454.473,-2418.066C-453.391,-2416.296 -451.301,-2412.876 -450.156,-2411.001C-449.988,-2410.728 -449.978,-2410.387 -450.128,-2410.103C-450.278,-2409.82 -450.566,-2409.637 -450.886,-2409.621C-452.067,-2409.564 -453.727,-2409.484 -455.107,-2409.417C-455.756,-2409.386 -456.361,-2409.081 -456.772,-2408.577C-457.183,-2408.074 -457.361,-2407.42 -457.262,-2406.778C-456.933,-2404.64 -456.452,-2401.518 -456.057,-2398.953C-455.886,-2397.842 -456.214,-2396.712 -456.955,-2395.866C-457.696,-2395.021 -458.773,-2394.546 -459.897,-2394.569C-464.635,-2394.661 -472.469,-2394.785 -480.362,-2394.788" style="fill:none;stroke:black;stroke-width:3.58px;"/>
                </g>
                <g transform="matrix(1,0,0,1,1433.496493,2939.900004)">
                    <path d="M-470.584,-2395.275L-470.584,-2377.508C-468.919,-2377.259 -454.153,-2377.347 -444.747,-2377.43C-440.064,-2377.379 -435.94,-2374.336 -434.51,-2369.877C-430.202,-2356.47 -421.741,-2330.078 -421.741,-2330.078" style="fill:none;stroke:black;stroke-width:3.58px;"/>
                </g>
                <g transform="matrix(0.910069,0.414457,-0.524932,1.15265,383.697936,-503.730119)">
                    <path d="M941.476,560.241C949.094,564.84 954.192,573.199 954.192,582.739C954.192,597.233 942.425,609 927.931,609C913.437,609 901.67,597.233 901.67,582.739C901.67,574.155 905.797,566.528 912.173,561.735C911.22,561.07 910.373,560.308 909.653,559.45C904.013,552.729 908.277,542.647 919.168,536.949C922.601,535.154 926.285,534.006 929.897,533.487C929.692,533.199 929.501,532.902 929.325,532.595C925.907,526.671 929.225,519.671 936.728,516.973C944.232,514.275 953.098,516.894 956.515,522.818C959.932,528.743 956.615,535.743 949.111,538.441C949.034,538.469 948.957,538.496 948.88,538.522C948.962,538.614 949.042,538.707 949.121,538.801C954.426,545.122 950.969,554.417 941.476,560.241Z" style="fill:rgb(241,241,241);stroke:black;stroke-width:3.14px;"/>
                </g>
                <g transform="matrix(1,0,0,1,1433.496493,2939.19316)">
                    <path d="M-366.957,-2419.193C-366.957,-2419.193 -365.65,-2410.039 -364.834,-2404.328C-364.426,-2401.467 -362.895,-2398.885 -360.579,-2397.155C-358.38,-2395.511 -355.64,-2393.463 -353.749,-2392.049C-353.36,-2391.759 -353.181,-2391.266 -353.293,-2390.794C-353.404,-2390.322 -353.786,-2389.962 -354.263,-2389.876C-356.014,-2389.563 -358.282,-2389.157 -360.092,-2388.834C-361.833,-2388.522 -363.041,-2386.922 -362.864,-2385.162C-362.521,-2381.768 -361.974,-2376.347 -361.611,-2372.741C-361.514,-2371.785 -361.819,-2370.832 -362.453,-2370.109C-363.087,-2369.387 -363.992,-2368.96 -364.953,-2368.931C-370.176,-2368.775 -379.06,-2368.508 -379.06,-2368.508" style="fill:none;stroke:black;stroke-width:3.58px;"/>
                </g>
                <g transform="matrix(1,0,0,1,1433.496493,2939.900004)">
                    <path d="M-368.944,-2360.993L-368.944,-2354.237L-339.499,-2354.237C-335.873,-2354.237 -332.529,-2352.283 -330.748,-2349.124C-323.613,-2336.467 -305.698,-2304.69 -305.698,-2304.69" style="fill:none;stroke:black;stroke-width:3.58px;"/>
                </g>
                <g transform="matrix(1.28517,0,0,1.28517,-278.642504,-137.029864)">
                    <path d="M1041.089,523.486C1040.471,523.815 1037.048,525.625 1035.048,526.683C1034.703,526.866 1034.463,527.2 1034.4,527.585C1034.338,527.97 1034.459,528.363 1034.728,528.646C1035.464,529.417 1036.456,530.459 1037.4,531.449C1038.003,532.082 1038.224,532.986 1037.981,533.825C1037.739,534.664 1037.069,535.311 1036.222,535.524C1032.908,536.357 1028.781,537.395 1028.781,537.395L1032.272,550.316C1032.272,550.316 1028.273,550.678 1027.486,550.678C1018.103,550.678 1010.486,543.061 1010.486,533.678C1010.486,525.81 1015.842,519.183 1023.105,517.249C1022.395,515.643 1022,513.867 1022,512C1022,504.825 1027.825,499 1035,499C1042.175,499 1048,504.825 1048,512C1048,516.975 1045.199,521.301 1041.089,523.486Z" style="fill:rgb(241,241,241);stroke:black;stroke-width:2.78px;"/>
                </g>
                <g transform="matrix(1,0,0,1,1433.496493,2939.900004)">
                    <path d="M-391.461,-2368.434L-391.498,-2354.237L-429.291,-2354.237" style="fill:none;stroke:black;stroke-width:3.58px;"/>
                </g>
            </g>
            <g transform="matrix(1.046767,0,0,0.999886,-7.857202,-52.90718)">
                <g transform="matrix(0.896021,0,0,1,1284.269483,-19.782086)">
                    <path d="M212.533,185.658L212.533,265.342L173.942,312.377L173.068,278L25.621,278C18.635,278 12.963,272.328 12.963,265.342L12.963,185.658C12.963,178.672 18.635,173 25.621,173L199.875,173C206.861,173 212.533,178.672 212.533,185.658Z" style="fill:rgb(241,241,241);stroke:black;stroke-width:5.06px;"/>
                </g>
                <g transform="matrix(0.896021,0,0,1,-54.838642,-6.5)">
                    <circle cx="1575.5" cy="212" r="9.5" style="fill:rgb(66,99,254);"/>
                </g>
                <g transform="matrix(0.896021,0,0,1,-26.386356,-6.5)">
                    <circle cx="1575.5" cy="212" r="9.5" style="fill:rgb(66,99,254);"/>
                </g>
                <g transform="matrix(0.896021,0,0,1,2.065929,-6.5)">
                    <circle cx="1575.5" cy="212" r="9.5" style="fill:rgb(66,99,254);"/>
                </g>
            </g>
            <g transform="matrix(1.046767,0,0,0.999886,-574.383991,180.956464)">
                <g transform="matrix(0.725588,0,0,0.762539,843.438269,-155.320505)">
                    <path d="M874,408.978L874,528.022C874,536.288 867.68,543 859.896,543L832.837,543L832.911,587.399L785.458,543L739.104,543C731.32,543 725,536.288 725,528.022L725,408.978C725,400.712 731.32,394 739.104,394L859.896,394C867.68,394 874,400.712 874,408.978Z" style="fill:rgb(241,241,241);stroke:black;stroke-width:6.43px;"/>
                </g>
                <g transform="matrix(0.393777,0.041953,-0.038552,0.450715,915.845746,18.415591)">
                    <g transform="matrix(0.861201,-0.090064,0.110175,1.001605,138.765223,8.744393)">
                        <path d="M1285.326,410.288C1280.562,407.141 1276.126,404.094 1272.453,400.24C1264.165,391.541 1259.271,380.483 1259.438,368.493C1259.822,340.909 1286.846,318.776 1319.747,319.098C1352.648,319.42 1379.048,342.076 1378.664,369.66C1378.522,379.841 1374.751,389.28 1368.395,397.121C1364.744,401.624 1359.035,404.394 1355.082,408.888C1348.64,416.211 1346.047,420.658 1342.6,430.53C1340.278,437.182 1329.679,437.907 1318.351,437.907C1312.285,437.907 1302.499,437.743 1300.916,433.095C1300.041,430.526 1296.398,417.601 1285.326,410.288Z" style="fill:none;stroke:rgb(67,102,254);stroke-width:12.03px;"/>
                    </g>
                    <g transform="matrix(0.252581,-0.030709,0.023375,0.182791,980.662585,315.378984)">
                        <path d="M1368.961,465.72L1367.289,528.821C1357.656,539.072 1344.166,545.717 1329.859,545.717C1316.007,545.717 1302.921,539.488 1293.36,529.789L1295.119,463.395" style="fill:none;stroke:rgb(67,102,254);stroke-width:51.15px;"/>
                    </g>
                    <g transform="matrix(0.45889,-0.055792,0.04923,0.384973,690.824965,223.541889)">
                        <path d="M1368.996,460.135L1367.289,528.821C1357.656,539.072 1344.166,545.717 1329.859,545.717C1316.007,545.717 1302.921,539.488 1293.36,529.789L1294.991,464.162" style="fill:none;stroke:rgb(67,102,254);stroke-width:26.58px;"/>
                    </g>
                    <g transform="matrix(0.813649,-0.085091,0.087616,0.796515,214.105117,81.50259)">
                        <path d="M1326.965,420.78L1304.965,420.43L1293.141,336.816L1336.141,336.816L1326.965,420.78Z" style="fill:none;stroke:rgb(67,102,254);stroke-width:13.98px;"/>
                    </g>
                </g>
            </g>
            <g transform="matrix(1.143022,0,0,1.249704,-211.292841,-83.244235)">
                <g transform="matrix(0.820566,0,0,0.800098,115.440388,77.094275)">
                    <circle cx="1061.5" cy="81.5" r="8.5" style="fill:white;stroke:black;stroke-width:5.06px;"/>
                </g>
                <g transform="matrix(0.820566,0,0,0.800098,141.456255,77.094275)">
                    <circle cx="1061.5" cy="81.5" r="8.5" style="fill:white;stroke:black;stroke-width:5.06px;"/>
                </g>
                <g transform="matrix(0.820566,0,0,0.800098,167.472122,77.094275)">
                    <circle cx="1061.5" cy="81.5" r="8.5" style="fill:white;stroke:black;stroke-width:5.06px;"/>
                </g>
            </g>
            <g transform="matrix(1.143022,0,0,1.249704,-176.566859,-83.244235)">
                <g>
                    <g transform="matrix(0.820566,0,0,0.800098,81.16234,26.675684)">
                        <circle cx="1261.394" cy="221.5" r="13.5" style="fill:rgb(66,99,254);"/>
                    </g>
                    <g transform="matrix(0.820566,0,0,0.800098,81.16234,26.675684)">
                        <circle cx="1325.5" cy="291.5" r="13.5" style="fill:rgb(66,99,254);"/>
                    </g>
                    <g transform="matrix(0.963273,0,0,0.939246,-120.340073,0.098502)">
                        <circle cx="1412" cy="202.5" r="11.5" style="fill:rgb(66,99,254);"/>
                    </g>
                    <g transform="matrix(0.820566,0,0,0.800098,81.16234,26.675684)">
                        <path d="M1261.394,221.5L1325.5,291.5L1412,202.5L1468,243" style="fill:none;stroke:rgb(65,100,254);stroke-width:5.06px;"/>
                    </g>
                </g>
                <g transform="matrix(0.66516,0,0,0.66516,288.792021,18.528955)">
                    <g transform="matrix(0.759521,0,0,0.740576,319.892274,-3.702882)">
                        <circle cx="918" cy="399" r="16" style="fill:none;stroke:rgb(65,100,254);stroke-width:8.22px;"/>
                    </g>
                    <g transform="matrix(0.759521,0,0,0.740576,365.812166,-18.905406)">
                        <circle cx="918" cy="399" r="16" style="fill:none;stroke:rgb(65,100,254);stroke-width:8.22px;"/>
                    </g>
                    <g transform="matrix(0.759521,0,0,0.740576,412.261963,-3.573854)">
                        <circle cx="918" cy="399" r="16" style="fill:none;stroke:rgb(65,100,254);stroke-width:8.22px;"/>
                    </g>
                    <g transform="matrix(0.759521,0,0,0.740576,430.846201,40.510683)">
                        <circle cx="918" cy="399" r="16" style="fill:none;stroke:rgb(65,100,254);stroke-width:8.22px;"/>
                    </g>
                    <g transform="matrix(0.759521,0,0,0.740576,413.168136,85.516522)">
                        <circle cx="918" cy="399" r="16" style="fill:none;stroke:rgb(65,100,254);stroke-width:8.22px;"/>
                    </g>
                    <g transform="matrix(0.759521,0,0,0.740576,362.823053,96.805987)">
                        <circle cx="918" cy="399" r="16" style="fill:none;stroke:rgb(65,100,254);stroke-width:8.22px;"/>
                    </g>
                    <g transform="matrix(0.759521,0,0,0.740576,320.752786,86.042471)">
                        <circle cx="918" cy="399" r="16" style="fill:none;stroke:rgb(65,100,254);stroke-width:8.22px;"/>
                    </g>
                    <g transform="matrix(0.759521,0,0,0.740576,301.587505,38.436982)">
                        <circle cx="918" cy="399" r="16" style="fill:none;stroke:rgb(65,100,254);stroke-width:8.22px;"/>
                    </g>
                    <g transform="matrix(0.759521,0,0,0.740576,316.094668,0)">
                        <path d="M903,469.702L914.9,499.183" style="fill:none;stroke:rgb(65,100,254);stroke-width:8.22px;"/>
                    </g>
                    <g transform="matrix(0.759521,0,0,0.740576,316.094668,0)">
                        <path d="M940.133,524L963.523,531.183" style="fill:none;stroke:rgb(65,100,254);stroke-width:8.22px;"/>
                    </g>
                    <g transform="matrix(0.759521,0,0,0.740576,316.094668,0)">
                        <path d="M995.523,529.717L1029.809,520" style="fill:none;stroke:rgb(65,100,254);stroke-width:8.22px;"/>
                    </g>
                    <g transform="matrix(0.759521,0,0,0.740576,316.094668,0)">
                        <path d="M1056,498.473L1061.809,469.702" style="fill:none;stroke:rgb(65,100,254);stroke-width:8.22px;"/>
                    </g>
                    <g transform="matrix(0.759521,0,0,0.740576,316.094668,0)">
                        <path d="M1069.084,437.702L1056,406" style="fill:none;stroke:rgb(65,100,254);stroke-width:8.22px;"/>
                    </g>
                    <g transform="matrix(0.759521,0,0,0.740576,316.094668,0)">
                        <path d="M1029.809,380.805L1002,372" style="fill:none;stroke:rgb(65,100,254);stroke-width:8.22px;"/>
                    </g>
                    <g transform="matrix(0.747511,0.030938,0.03173,0.658844,313.627158,6.356065)">
                        <path d="M915,406L903,437.702" style="fill:none;stroke:rgb(65,100,254);stroke-width:8.39px;"/>
                    </g>
                    <g transform="matrix(0.759521,0,0,0.740576,316.094668,0)">
                        <path d="M966,376.402L940,388" style="fill:none;stroke:rgb(65,100,254);stroke-width:8.22px;"/>
                    </g>
                </g>
            </g>
        </g>
    </g>

    </symbol>


    <svg id="ilustracion-3" viewBox="0 0 579 529" version="1.1" xmlns="http://www.w3.org/2000/svg" xmlns:xlink="http://www.w3.org/1999/xlink" xml:space="preserve" xmlns:serif="http://www.serif.com/" style="fill-rule:evenodd;clip-rule:evenodd;stroke-linecap:round;stroke-linejoin:round;stroke-miterlimit:1.5;">
    <g transform="matrix(1,0,0,1,-1753.724406,-149.57181)">
        <g id="Mesa-de-trabajo2" serif:id="Mesa de trabajo2" transform="matrix(0.829513,0,0,0.791916,1051.126984,149.57181)">
            <rect x="847" y="0" width="698" height="668" style="fill:none;"/>
            <g transform="matrix(0.39176,0,0,0.410359,533.278965,-35.769484)">
                <path d="M1100.926,329.83L1061.926,435.968L1063.238,478.383L1124.782,475.972L1359.164,475.972L1353.695,375.916L1312,314L1254.85,314.505L1248.85,298.079L1211.939,324L1178,298L1167.957,314.505L1146.496,315.5L1100.926,329.83Z" style="fill:rgb(65,100,254);"/>
            </g>
            <g transform="matrix(1.205527,0,0,1.26276,-1262.942375,-166.368553)">
                <path d="M1981.054,404.178L1981.5,351.954C1981.5,351.954 1981.296,346.219 1981.5,339.5C1982.405,309.698 2009.78,279.58 2047.5,280.5C2085.234,281.42 2111,310.268 2111,337L2111,375C2111,398.732 2130.268,418 2154,418" style="fill:none;stroke:black;stroke-width:6.25px;"/>
            </g>
            <g transform="matrix(1.205527,0,0,1.26276,-1279.908569,-155.003714)">
                <path d="M2111,337L2111,375C2111,398.732 2130.268,418 2154,418" style="fill:none;stroke:black;stroke-width:6.25px;"/>
            </g>
            <g transform="matrix(-1.205527,0,0,1.26276,3670.138791,-132.979787)">
                <path d="M2111,337L2111,375C2111,398.732 2130.268,418 2154,418" style="fill:none;stroke:black;stroke-width:6.25px;"/>
            </g>
            <g transform="matrix(1.205527,0,0,1.26276,-1265.929082,-186.347768)">
                <path d="M2099.404,392.43C2095.576,417.649 2073.78,437 2047.5,437C2018.524,437 1995,413.476 1995,384.5L1995,367" style="fill:white;stroke:black;stroke-width:6.25px;"/>
            </g>
            <g transform="matrix(0.879303,0,0,0.921049,-444.364739,-1898.934471)">
                <path d="M1864.903,2378.467L1864.903,2388.679" style="fill:none;stroke:black;stroke-width:8.57px;"/>
            </g>
            <g transform="matrix(0.879303,0,0,0.921049,-473.280636,-1898.934471)">
                <path d="M1864.903,2378.467L1864.903,2388.679" style="fill:none;stroke:black;stroke-width:8.57px;"/>
            </g>
            <g transform="matrix(1.205527,0,0,1.26276,-1213.515777,-217.285386)">
                <path d="M2227,546L2227,581.5" style="fill:none;stroke:black;stroke-width:6.25px;"/>
            </g>
            <g transform="matrix(1.205527,0,0,1.26276,-1214.118541,-226.124705)">
                <path d="M2244,546L2244,581.5" style="fill:none;stroke:black;stroke-width:6.25px;"/>
            </g>
            <g transform="matrix(1.205527,0,0,1.26276,-1194.183409,-212.042507)">
                <path d="M2244,546L2244,581.5" style="fill:none;stroke:black;stroke-width:6.25px;"/>
            </g>
            <g transform="matrix(1.205527,0,0,1.26276,-1267.161719,-188.873287)">
                <path d="M1921,541.25C1921,541.25 1937.23,501.511 1947.263,476.944C1951.763,465.925 1963.409,459.607 1975.1,461.842C1998.184,466.256 2034.266,473.153 2045.067,475.218C2047.146,475.616 2049.288,475.55 2051.339,475.026C2062.886,472.076 2103.891,461.601 2129.261,455.12C2141.453,452.005 2154.202,457.578 2160.198,468.642C2165.596,478.605 2198.739,539.771 2217.073,573.607C2221.082,581.006 2221.69,589.779 2218.739,597.66C2215.787,605.54 2209.567,611.757 2201.684,614.702C2147.736,634.862 2043,674 2043,674L2032,645L1933,629L1921,541.25Z" style="fill:rgb(67,102,254);stroke:rgb(65,100,254);stroke-width:6.25px;"/>
            </g>
            <g transform="matrix(1.205527,0,0,1.26276,-1267.161719,-210.228338)">
                <path d="M1984.554,525.652L1966.907,603.002" style="fill:none;stroke:black;stroke-width:6.25px;"/>
            </g>
            <g transform="matrix(0.775601,0,0,0.812423,723.866332,-856.943641)">
                <g transform="matrix(1,0,0,1,263.777054,1578.145914)">
                    <path d="M260.13,156.873C260.397,156.673 260.676,156.465 260.969,156.249C265.334,153.033 271.279,153.016 275.663,156.207C278.444,158.232 280.19,161.252 280.655,164.503C283.155,163.422 285.974,162.583 288.486,162.34C292.201,161.98 295.456,162.741 297.78,163.926L301.195,166.374C302.219,167.361 303.379,168.795 304.435,170.666C306.93,175.085 309.579,184.288 309.889,185.428C310.212,186.614 311.527,190.334 310.414,200.785C309.828,206.287 305.677,210.74 300.23,211.71C300.17,211.72 300.111,211.73 300.051,211.74C298.26,212.928 296.151,213.661 293.897,213.791C293.766,213.799 293.636,213.804 293.505,213.808C289.55,214.793 288.031,214.402 286.381,213.916L282.441,212.046L281.055,210.657C280.424,211.147 279.75,211.627 279.031,212.096C275.291,214.539 270.529,214.788 266.555,212.749C262.581,210.71 260.006,206.696 259.809,202.234C259.802,202.07 259.79,201.825 259.78,201.508C257.728,204.135 255.615,205.369 254.076,206.053L250.997,207.007L247.492,207.184L244.157,206.481L241.47,205.201L238.284,202.511C237.494,201.62 236.709,200.515 236.019,199.204C235.671,198.542 235.32,197.664 234.987,196.705C234.718,196.714 234.488,196.712 234.311,196.693L229.322,195.181L225.609,192.228L222.889,187.246L222.431,181.68L223.481,177.716L226.231,173.587C227.332,172.422 230.784,170.3 239.925,157.165C243.846,151.532 251.602,150.142 257.235,154.062C258.378,154.858 259.346,155.811 260.13,156.873Z" style="fill:white;"/>
                </g>
                <g transform="matrix(2.998554,-0.162584,0.162584,2.998554,-3522.333121,-3403.083988)">
                    <path d="M1247.203,1781.566C1245.648,1783.26 1238.381,1788.979 1242.147,1792.136C1242.639,1792.549 1243.647,1793.006 1244.595,1792.86C1246.076,1792.632 1249.683,1787.814 1251.346,1785.28C1252.806,1783.056 1251.526,1781.748 1250.835,1781.129C1250.145,1780.51 1248.207,1780.473 1247.203,1781.566Z" style="fill:none;stroke:black;stroke-width:3.23px;"/>
                </g>
                <g transform="matrix(3.002959,0,0,3.002959,-3246.715156,-3610.742625)">
                    <path d="M1271.401,1793.272C1271.394,1792.083 1271.487,1793.764 1271.453,1792.392C1271.368,1788.958 1270.484,1785.31 1265.239,1783.235C1260.335,1781.295 1255.249,1795.817 1257.398,1796.929C1258.386,1797.44 1261.751,1800.337 1264.901,1789.903" style="fill:none;stroke:black;stroke-width:3.23px;"/>
                </g>
                <g transform="matrix(2.254416,0.710901,-0.903107,2.863941,-690.056275,-4259.089915)">
                    <path d="M1260.209,1786.071C1262.144,1780.135 1253.636,1779.67 1252.101,1783.665" style="fill:none;stroke:black;stroke-width:3.59px;"/>
                </g>
                <g transform="matrix(2.451483,-0.132921,0.147309,2.716829,-2811.13118,-2933.496536)">
                    <path d="M1245.05,1791.418C1243.195,1794.303 1245.338,1796.426 1246.792,1796.929C1250.344,1798.157 1254.875,1791.526 1255.425,1791.096" style="fill:none;stroke:black;stroke-width:3.75px;"/>
                </g>
            </g>
            <g transform="matrix(1.205527,0,0,1.26276,-1258.452504,-185.524549)">
                <path d="M2130.276,510.089L2150.276,582.391L2041,626" style="fill:none;stroke:black;stroke-width:6.25px;"/>
            </g>
            <g transform="matrix(1.205527,0,0,1.26276,-1267.161719,-184.507791)">
                <path d="M2200,581.043L2157.5,581.043" style="fill:none;stroke:black;stroke-width:6.25px;"/>
            </g>
            <g transform="matrix(1.205527,0,0,1.26276,-1262.312502,-193.924461)">
                <path d="M1992,373L2041,348C2041,348 2047.662,365.754 2066,382C2084.338,398.246 2093.5,398 2093.5,398" style="fill:none;stroke:black;stroke-width:6.25px;"/>
            </g>
            <g transform="matrix(1.205527,0,0,1.26276,-1267.161719,-188.873287)">
                <path d="M1766.323,517.086C1763.523,517.068 1760.921,518.523 1759.471,520.918C1758.021,523.313 1757.937,526.293 1759.25,528.766C1773.813,556.178 1809.469,623.295 1818.758,640.78C1820.138,643.377 1822.838,645 1825.779,645C1857.119,645 2032,645 2032,645L2032,620L1961,620C1961,620 1920.241,541.558 1910.21,522.253C1908.851,519.637 1906.155,517.988 1903.207,517.969C1882.349,517.835 1799.07,517.297 1766.323,517.086Z" style="fill:white;stroke:black;stroke-width:6.25px;"/>
            </g>
            <g transform="matrix(6.367953,-3.043816,11.468253,1.455677,-18771.973915,5661.49691)">
                <path d="M1969.724,639L1963,627" style="fill:none;stroke:black;stroke-width:0.6px;"/>
            </g>
            <g transform="matrix(0.632038,-0.352778,0.446017,0.876761,-474.579818,666.938913)">
                <circle cx="1864.25" cy="593.75" r="12.25" style="fill:rgb(67,102,254);stroke:rgb(67,102,254);stroke-width:8.97px;"/>
            </g>
            <g transform="matrix(0.508134,0,0,0.532258,490.614431,-1150.724558)">
                <path d="M1826.278,2469.034C1826.278,2469.034 1835.564,2402.373 1838.254,2395.591C1846.987,2373.581 1868.48,2358 1893.584,2358C1926.423,2358 1946.47,2384.661 1953.084,2417.5C1954.121,2422.647 1962.895,2471.832 1962.895,2471.832" style="fill:white;stroke:black;stroke-width:14.83px;"/>
            </g>
            <g transform="matrix(0.31374,0,0,0.328635,858.526093,-656.925035)">
                <path d="M1893.584,2358C1913.812,2357.764 1953.084,2417.132 1953.084,2417.5C1953.084,2450.339 1926.423,2477 1893.584,2477C1860.745,2477 1834.084,2450.339 1834.084,2417.5C1834.084,2416.661 1865.67,2358.325 1893.584,2358Z" style="fill:none;stroke:black;stroke-width:24.02px;"/>
            </g>
            <g transform="matrix(0.31374,0,0,0.328635,872.719131,-648.229269)">
                <path d="M1864.903,2378.467L1864.903,2388.679" style="fill:none;stroke:black;stroke-width:24.02px;"/>
            </g>
            <g transform="matrix(0.31374,0,0,0.328635,862.4018,-648.229269)">
                <path d="M1864.903,2378.467L1864.903,2388.679" style="fill:none;stroke:black;stroke-width:24.02px;"/>
            </g>
            <g transform="matrix(0.430229,-0.004029,-0.003847,0.620641,1216.871547,2.404313)">
                <path d="M506.105,274.796L507,220.788" style="fill:none;stroke:black;stroke-width:14.66px;"/>
            </g>
            <g transform="matrix(0.430229,-0.004029,-0.003847,0.620641,1253.968671,2.404313)">
                <path d="M506.105,274.796L507,220.788" style="fill:none;stroke:black;stroke-width:14.66px;"/>
            </g>
            <g transform="matrix(-1.548139,0,0,1.453021,3178.679746,-214.23079)">
                <g transform="matrix(0.722778,0,0,1,1321.089305,-19.782086)">
                    <path d="M12.963,200.945L12.963,185.658C12.963,178.672 18.635,173 25.621,173L199.875,173C206.861,173 212.533,178.672 212.533,185.658L212.533,278.378L186.874,278.595L171.787,305.424L173.068,278L25.621,278C18.635,278 12.963,272.328 12.963,265.342L12.963,246.473" style="fill:none;stroke:black;stroke-width:5.98px;"/>
                </g>
                <g transform="matrix(-0.541251,0,0,0.604061,2444.771736,61.425454)">
                    <circle cx="1813.5" cy="172.5" r="5.5"/>
                </g>
                <g transform="matrix(-0.541251,0,0,0.604061,2436.111718,61.425454)">
                    <circle cx="1813.5" cy="172.5" r="5.5"/>
                </g>
                <g transform="matrix(-0.541251,0,0,0.604061,2426.910447,61.425454)">
                    <circle cx="1813.5" cy="172.5" r="5.5"/>
                </g>
            </g>
            <g transform="matrix(0.631261,0,0,0.690926,314.516264,12.869572)">
                <g transform="matrix(0.670532,0,0,0.641712,30.868038,-163.148404)">
                    <path d="M1804,372L1812.083,396.875L1838.238,396.875L1817.078,412.249L1825.16,437.125L1804,421.751L1782.84,437.125L1790.922,412.249L1769.762,396.875L1795.917,396.875L1804,372Z" style="fill:rgb(66,99,254);stroke:rgb(66,99,254);stroke-width:17.8px;"/>
                </g>
                <g transform="matrix(0.670532,0,0,0.641712,94.330121,-163.148404)">
                    <path d="M1804,372L1812.083,396.875L1838.238,396.875L1817.078,412.249L1825.16,437.125L1804,421.751L1782.84,437.125L1790.922,412.249L1769.762,396.875L1795.917,396.875L1804,372Z" style="fill:rgb(66,99,254);stroke:rgb(66,99,254);stroke-width:17.8px;"/>
                </g>
                <g transform="matrix(0.670532,0,0,0.641712,158.060017,-163.148404)">
                    <path d="M1804,372L1812.083,396.875L1838.238,396.875L1817.078,412.249L1825.16,437.125L1804,421.751L1782.84,437.125L1790.922,412.249L1769.762,396.875L1795.917,396.875L1804,372Z" style="fill:rgb(66,99,254);stroke:rgb(66,99,254);stroke-width:17.8px;"/>
                </g>
            </g>
            <g transform="matrix(0.631261,0,0,0.690926,504.807159,85.17914)">
                <g transform="matrix(0.670532,0,0,0.641712,30.868038,-163.148404)">
                    <path d="M1804,372L1812.083,396.875L1838.238,396.875L1817.078,412.249L1825.16,437.125L1804,421.751L1782.84,437.125L1790.922,412.249L1769.762,396.875L1795.917,396.875L1804,372Z" style="fill:rgb(66,99,254);stroke:rgb(66,99,254);stroke-width:17.8px;"/>
                </g>
                <g transform="matrix(0.670532,0,0,0.641712,94.330121,-163.148404)">
                    <path d="M1804,372L1812.083,396.875L1838.238,396.875L1817.078,412.249L1825.16,437.125L1804,421.751L1782.84,437.125L1790.922,412.249L1769.762,396.875L1795.917,396.875L1804,372Z" style="fill:rgb(66,99,254);stroke:rgb(66,99,254);stroke-width:17.8px;"/>
                </g>
                <g transform="matrix(0.670532,0,0,0.641712,158.060017,-163.148404)">
                    <path d="M1804,372L1812.083,396.875L1838.238,396.875L1817.078,412.249L1825.16,437.125L1804,421.751L1782.84,437.125L1790.922,412.249L1769.762,396.875L1795.917,396.875L1804,372Z" style="fill:rgb(66,99,254);stroke:rgb(66,99,254);stroke-width:17.8px;"/>
                </g>
            </g>
            <g transform="matrix(0.39176,0,0,0.410359,548.416627,-1300.70067)">
                <path d="M1088.942,3458.411L1083.341,3553.27" style="fill:none;stroke:black;stroke-width:19.23px;"/>
            </g>
            <g transform="matrix(0.39176,0,0,0.410359,548.416627,-1300.70067)">
                <path d="M1129.317,3398.459L1143.423,3424.881L1160.132,3427.651L1170.794,3407.836L1181.199,3427.651L1192.457,3424.973L1216.209,3397" style="fill:none;stroke:black;stroke-width:19.23px;"/>
            </g>
            <g transform="matrix(0.361489,-0.013848,0.014318,0.410085,534.501179,-1288.285605)">
                <path d="M1182.479,3438.599L1177.064,3450.486L1191.635,3513.718L1169.552,3547.051L1145.758,3514.698L1163.048,3449.8L1160.231,3438.848L1172.519,3419.094L1182.479,3438.599Z" style="fill:none;stroke:black;stroke-width:19.98px;"/>
            </g>
            <g transform="matrix(0.39176,0,0,0.410359,548.416627,-1300.70067)">
                <path d="M1258.384,3462.588L1257.792,3553.27" style="fill:none;stroke:black;stroke-width:19.23px;"/>
            </g>
            <g transform="matrix(-0.367492,0,0,0.384939,1374.899284,-1140.301765)">
                <path d="M1013.359,3083.07C1013.359,3083.07 1051,3121.206 1051,3128.5C1051,3159.683 1025.683,3185 994.5,3185C963.317,3185 938,3159.683 938,3128.5C938,3123.065 940.204,3112.832 940.204,3112.832L1013.359,3083.07Z" style="fill:none;stroke:black;stroke-width:20.5px;"/>
            </g>
            <g transform="matrix(0.285747,0,0,0.299313,478.744467,-648.960362)">
                <path d="M1864.903,2378.467L1864.903,2388.679" style="fill:none;stroke:black;stroke-width:26.37px;"/>
            </g>
            <g transform="matrix(0.285747,0,0,0.299313,469.347659,-648.960362)">
                <path d="M1864.903,2378.467L1864.903,2388.679" style="fill:none;stroke:black;stroke-width:26.37px;"/>
            </g>
            <g transform="matrix(-0.477907,0.111898,0.106826,0.500596,1164.038474,-1573.852548)">
                <path d="M941.562,3047.306C928.094,3044.357 918,3032.348 918,3018C918,3001.443 931.443,2988 948,2988C958.337,2988 967.46,2993.24 972.856,3001.206" style="fill:none;stroke:black;stroke-width:15.39px;"/>
            </g>
            <g transform="matrix(-0.43029,-0.080237,-0.0766,0.450719,2013.555106,-878.352273)">
                <path d="M1864.986,2459.884C1858.834,2457.457 1853.17,2457.325 1845.882,2449.127C1837.697,2439.92 1834.084,2424.495 1834.084,2417.5C1834.084,2405.463 1837.667,2394.256 1843.822,2384.888" style="fill:none;stroke:black;stroke-width:17.24px;"/>
            </g>
            <g transform="matrix(-0.437055,0,0,0.457805,1836.202264,-1044.32933)">
                <path d="M1868.164,2362.856C1875.197,2359.928 1885.496,2358 1893.584,2358C1926.423,2358 1959.636,2380.11 1959.636,2415.707C1959.636,2415.846 1970.323,2436.641 1970.323,2436.641L1961.913,2458.091" style="fill:none;stroke:black;stroke-width:17.24px;"/>
            </g>
            <g transform="matrix(0.406059,0,0,0.425337,837.429043,-924.527872)">
                <path d="M1668.803,2723.863L1633.451,2586.252L1602.227,2567.163C1602.227,2567.163 1561.218,2577.323 1532.321,2584.482C1514.088,2588.999 1494.974,2588.504 1476.999,2583.049C1453.914,2576.043 1424.656,2567.163 1424.656,2567.163L1394.397,2592.19L1369.748,2720.7" style="fill:rgb(65,100,254);stroke:rgb(67,102,254);stroke-width:18.56px;"/>
            </g>
            <g transform="matrix(1.548139,0,0,1.453021,-746.17742,-140.809239)">
                <g transform="matrix(0.722778,0,0,1,1321.089305,-19.782086)">
                    <path d="M12.963,200.945L12.963,185.658C12.963,178.672 18.635,173 25.621,173L199.875,173C206.861,173 212.533,178.672 212.533,185.658L212.533,278.378L60.696,278.595L45.609,305.424L46.89,278L25.621,278C18.635,278 12.963,272.328 12.963,265.342L12.963,246.473" style="fill:none;stroke:black;stroke-width:5.98px;"/>
                </g>
                <g transform="matrix(-0.541251,0,0,0.604061,2343.541514,61.376841)">
                    <circle cx="1813.5" cy="172.5" r="5.5"/>
                </g>
                <g transform="matrix(-0.541251,0,0,0.604061,2334.881495,61.376841)">
                    <circle cx="1813.5" cy="172.5" r="5.5"/>
                </g>
                <g transform="matrix(-0.541251,0,0,0.604061,2325.680225,61.376841)">
                    <circle cx="1813.5" cy="172.5" r="5.5"/>
                </g>
            </g>
            <g transform="matrix(1.205527,0,0,1.409319,-1267.161719,-258.04936)">
                <path d="M1845,406.747L1845,468.324C1845,470.353 1843.162,472 1840.898,472L1802.74,472L1793.009,484.544L1783.388,472L1771.102,472C1768.838,472 1767,470.353 1767,468.324L1767,406.747C1767,404.719 1768.838,403.072 1771.102,403.072L1840.898,403.072C1843.162,403.072 1845,404.719 1845,406.747Z" style="fill:none;stroke:black;stroke-width:5.9px;"/>
            </g>
            <g transform="matrix(1.205527,0,0,1.26276,-1268.816018,-174.92935)">
                <path d="M1796.009,443.157L1818.735,443.221" style="fill:none;stroke:black;stroke-width:6.25px;"/>
            </g>
            <g transform="matrix(1.205527,0,0,1.26276,-1357.818818,-212.865726)">
                <path d="M1882.6,439.573C1877.896,434.585 1860.728,444.358 1866.285,455C1866.968,456.308 1869.369,461.421 1874.327,459.334C1879.096,457.327 1882.816,455.321 1882.855,448.211C1883.702,455.356 1887.76,457.881 1887.76,457.881C1887.76,457.881 1894.486,453.96 1897.212,449.351" style="fill:none;stroke:black;stroke-width:6.25px;"/>
            </g>
            <g transform="matrix(1.205527,0,0,1.26276,-1206.88538,-229.281605)">
                <path d="M2211,588L2265,588L2255,645L2224,645L2211,588Z" style="fill:rgb(67,102,254);stroke:rgb(65,100,254);stroke-width:6.25px;"/>
            </g>
        </g>
    </g>
</svg>





    </defs>
</svg>