<?xml version="1.0" encoding="UTF-8" standalone="no"?><!DOCTYPE svg PUBLIC "-//W3C//DTD SVG 1.1//EN" "http://www.w3.org/Graphics/SVG/1.1/DTD/svg11.dtd"><svg width="100%" height="100%" viewBox="0 0 3967 3438" version="1.1" xmlns="http://www.w3.org/2000/svg" xmlns:xlink="http://www.w3.org/1999/xlink" xml:space="preserve" xmlns:serif="http://www.serif.com/" style="fill-rule:evenodd;clip-rule:evenodd;stroke-linecap:round;stroke-linejoin:round;stroke-miterlimit:1.5;"><rect id="Mesa-de-trabajo2" serif:id="Mesa de trabajo2" x="0" y="0" width="3966.667" height="3437.5" style="fill:none;"/><g><path d="M3504.121,340.042l0,290.813l-3338.175,0l0,-199.63c0,-50.358 40.824,-91.182 91.182,-91.182c535.4,-0 3246.993,-0 3246.993,-0Z" style="fill:#ddffef;"/><path d="M1676.942,2634.816c-44.704,0 -1097.775,0.6 -1097.775,0.6l-413.221,0l0,-2004.562l3338.175,0l0,2003.966l-1827.183,0l0.004,-0.004Z" style="fill:#fff;"/><path d="M1676.942,2634.729c-44.704,0 -1097.775,0.688 -1097.775,0.688l-413.221,0l0,-2209.708c0,-47.312 38.354,-85.667 85.667,-85.667l3252.508,0l0,2294.692l-1827.183,0l0.004,-0.004Z" style="fill:none;stroke:#000;stroke-width:26.04px;"/><rect x="386.679" y="2070.029" width="218.429" height="280.992" style="fill:none;stroke:#ff5932;stroke-width:26.04px;"/><path d="M778.283,2351.021l0,-423.8l218.429,0l0,382.133" style="fill:none;stroke:#ff5932;stroke-width:26.04px;"/><path d="M1169.888,2351.021l0,-732.162l163.446,0" style="fill:none;stroke:#ff5932;stroke-width:26.04px;"/><path d="M300.304,2351.021l1481.167,0" style="fill:none;stroke:#000;stroke-width:26.04px;"/></g><g><path d="M1245.646,1365.296l-30.871,-125.833c0,0 17.342,-1.396 33.963,-2.733c17.083,-1.375 32.483,10.271 35.812,27.083c8.329,42.042 22.613,114.167 22.613,114.167l76.954,79.725" style="fill:none;stroke:#000;stroke-width:26.04px;"/><path d="M1363.671,1681.096l-64.225,-146.1l-245.042,-259.233c0,0 19.05,-14.008 34.196,-25.15c10.292,-7.571 24.692,-5.871 32.937,3.892c21.5,25.454 59.075,69.938 59.075,69.938" style="fill:none;stroke:#000;stroke-width:26.04px;"/><path d="M1179.146,1321.942l-52.913,-141.979l51.854,-21.95l36.688,82.725" style="fill:none;stroke:#000;stroke-width:26.04px;"/><path d="M1536.708,1650.225c0,0 6.638,-98.942 10.825,-161.387c2.183,-32.538 -4.971,-65.021 -20.621,-93.633c-41.021,-75 -120.317,-219.987 -120.317,-219.987l-53.213,8.408l39.2,183.621l-85.417,0" style="fill:none;stroke:#000;stroke-width:26.04px;"/></g><path d="M1363.671,1809.046c0,0 73.662,418.9 117.575,668.617c7.346,41.779 34.471,77.417 72.783,95.629c38.312,18.213 83.071,16.746 120.112,-3.933c156.854,-87.575 371.858,-207.621 371.858,-207.621l0,288.429l1285.15,-15.438l-249.808,-771.658l-53.258,-39.229l-47.35,-12.279l-265.483,7.8l-30.871,-84.517l-189.921,133.371l-174.629,-133.779l-51.675,84.921l-110.421,5.121l-424.475,316.571l-149.446,-406.208l40.746,-78.663l-22.596,-75.35l-343.442,97.062l20.408,88.763l84.75,42.392l-0.008,-0Z" style="fill:#3a7fff;"/><g><path d="M1363.671,1809.046c0,0 73.354,442.3 106.038,639.375c8.833,53.258 43.471,98.687 92.496,121.3c49.021,22.613 106.062,19.479 152.312,-8.371c151.562,-91.267 331.483,-199.613 331.483,-199.613" style="fill:none;stroke:#000;stroke-width:26.04px;"/><path d="M2060.404,2135.342l-28.817,488.083" style="fill:none;stroke:#000;stroke-width:26.04px;"/><path d="M1555.704,1745.833l149.129,472.267l449.771,-393.621l111.912,0.025l43.663,-89.662l170.858,133.321l203.354,-127.225l33.633,76.571c0,0 146.621,-10.204 247.467,-17.221c54.754,-3.808 105.083,30.108 122.1,82.292c46.525,142.667 132.771,407.125 132.771,407.125l110.779,337.321" style="fill:none;stroke:#3a7fff;stroke-width:26.04px;"/><path d="M2268.146,1826.867l120.083,56.787l38.471,93.417l54.858,-101.958l53.538,101.958l59.633,-92.946l120.508,-64.763" style="fill:none;stroke:#000;stroke-width:26.04px;"/><path d="M2535.429,1971.925l-23.475,62.062l81.071,322.608l-98.575,175.229l-119.054,-162.225l69.883,-336.7l-15.433,-55.825l54.629,-103.708l50.954,98.562l-0,-0.004Z" style="fill:#e0f0ff;stroke:#000;stroke-width:26.04px;"/><path d="M2932.246,2156.833l-2.904,470.192" style="fill:none;stroke:#000;stroke-width:26.04px;"/><path d="M2405.454,1200.9c0,0 -165.85,215.733 -165.85,250.942c0,150.508 122.196,272.704 272.704,272.704c150.508,0 272.704,-122.196 272.704,-272.704c0,-26.233 -10.642,-75.625 -10.642,-75.625l-368.921,-175.317l0.004,0Z" style="fill:none;stroke:#000;stroke-width:26.04px;"/><path d="M2541.3,1426.388l0,50.829" style="fill:none;stroke:#000;stroke-width:26.04px;"/><path d="M2417.883,1426.388l0,50.829" style="fill:none;stroke:#000;stroke-width:26.04px;"/><path d="M2908.467,1364c80.4,-37.408 126.908,-126.95 106.779,-217.008c-23.229,-103.929 -126.467,-169.446 -230.396,-146.212c-64.883,14.504 -114.796,60.192 -137.487,117.762" style="fill:none;stroke:#000;stroke-width:26.04px;"/><path d="M2685.85,1661.775c37.208,-7.525 69.35,-2.571 118.783,-41.571c55.521,-43.8 91.458,-127.337 98.496,-166.871c12.108,-68.025 3.142,-134.967 -22.221,-194.104" style="fill:none;stroke:#000;stroke-width:26.04px;"/><path d="M2647.358,1118.542c-40.371,-16.813 -99.487,-27.879 -145.917,-27.879c-188.504,0 -315.821,142.75 -315.821,331.254c0,0.796 -61.346,120.162 -61.346,120.162l48.271,123.133" style="fill:none;stroke:#000;stroke-width:26.04px;"/></g><path d="M165.946,630.854l2627.629,0" style="fill:none;stroke:#000;stroke-width:26.04px;"/><g><path d="M2110.662,3418.292c-15.226,-18.66 -206.626,-360.671 -206.626,-360.671l-253.762,0l0,-103.35l-163.913,0l0,96.518c0,0 -278.816,6.923 -275.375,0c3.711,-7.465 -32.491,-121.562 -70.831,-144.831c-25.965,-15.759 -229.757,-15.06 -229.757,-15.06l0,-132.009l-90.493,0c0,0 18.851,108.512 -56.668,189.7c-93.778,100.818 -218.076,102.201 -218.076,102.201l1565.5,367.503Z" style="fill:#ddffef;"/><path d="M998.383,2495.25c0,0 15.321,53.238 21.621,75.142c1.767,6.133 4.346,12.004 7.675,17.45c7.871,12.883 23.087,37.779 31.425,51.425c1.217,1.992 1.292,4.475 0.2,6.537c-1.092,2.062 -3.192,3.396 -5.521,3.508c-8.596,0.417 -20.679,1 -30.725,1.487c-4.725,0.229 -9.129,2.45 -12.117,6.112c-2.992,3.663 -4.287,8.421 -3.567,13.096c2.404,15.612 5.921,38.433 8.8,57.133c1.242,8.067 -1.133,16.271 -6.496,22.421c-5.363,6.154 -13.167,9.625 -21.325,9.496c-73.083,-1.188 -248.408,-3.908 -319.967,-3.929" style="fill:#fff;stroke:#000;stroke-width:26.04px;"/><path d="M910.4,2758.888l0,129.329c12.121,1.817 119.604,1.179 188.079,0.575c34.087,0.367 64.108,22.517 74.517,54.979c31.362,97.596 92.954,289.713 92.954,289.713" style="fill:none;stroke:#000;stroke-width:26.04px;"/><path d="M790.329,2668.683c32.892,61.575 34.721,147.088 -1.729,227.133c-55.383,121.613 -178.304,184.846 -274.321,141.117c-96.017,-43.729 -129.008,-177.963 -73.625,-299.575c32.8,-72.021 89.283,-123.567 149.838,-144.546c-3.771,-8.45 -6.471,-17.404 -7.962,-26.779c-11.683,-73.4 55.087,-145.133 149.017,-160.083c29.6,-4.713 58.392,-3.225 84.304,3.317c-0.254,-3.037 -0.383,-6.108 -0.383,-9.208c0,-60.017 48.725,-108.746 108.746,-108.746c60.017,0 108.746,48.725 108.746,108.746c0,60.017 -48.725,108.746 -108.746,108.746c-0.617,0 -1.233,-0.004 -1.846,-0.017c0.192,1.017 0.371,2.037 0.533,3.067c10.988,69.037 -47.429,136.6 -132.571,156.825l0,0.004Z" style="fill:#f1f1f1;stroke:#000;stroke-width:26.04px;"/><g><path d="M1664.737,2579.633c0,0 9.513,66.638 15.45,108.208c2.975,20.829 14.121,39.621 30.975,52.217c16.013,11.967 35.958,26.875 49.721,37.162c2.829,2.112 4.129,5.704 3.317,9.137c-0.812,3.433 -3.588,6.058 -7.062,6.683c-12.746,2.279 -29.254,5.233 -42.433,7.588c-12.675,2.267 -21.467,13.913 -20.175,26.725c2.483,24.608 6.446,63.871 9.092,90.117c0.708,7.008 -1.55,13.992 -6.225,19.263c-4.675,5.271 -11.342,8.342 -18.383,8.479c-55.804,1.058 -177.558,3.375 -177.558,3.375l-38.962,-246.246l202.237,-122.708l0.008,0Z" style="fill:#fff;stroke:#000;stroke-width:26.04px;"/></g><path d="M1650.275,3008.438l0,49.183l214.337,0c26.396,0 50.742,14.225 63.704,37.217c51.942,92.138 182.346,323.454 182.346,323.454" style="fill:none;stroke:#000;stroke-width:26.04px;"/><path d="M1612.292,2694.204c-5.783,3.075 -37.804,20.013 -56.521,29.908c-3.229,1.708 -5.471,4.829 -6.058,8.433c-0.588,3.604 0.55,7.275 3.067,9.921c6.875,7.217 16.163,16.963 24.996,26.229c5.638,5.912 7.704,14.375 5.433,22.225c-2.271,7.846 -8.537,13.9 -16.458,15.892c-31.004,7.796 -69.608,17.504 -69.608,17.504l32.654,120.883c0,0 -37.408,3.383 -44.775,3.383c-87.775,0 -159.037,-71.262 -159.037,-159.037c0,-73.608 50.112,-135.604 118.054,-153.7c-6.646,-15.021 -10.337,-31.633 -10.337,-49.104c0,-67.121 54.496,-121.617 121.617,-121.617c67.121,0 121.617,54.496 121.617,121.617c0,46.546 -26.204,87.017 -64.65,107.458l0.008,0.004Z" style="fill:#f1f1f1;stroke:#000;stroke-width:26.04px;"/><path d="M1486.362,2954.271l-0.267,103.35l-275.108,0" style="fill:none;stroke:#000;stroke-width:26.04px;"/></g><g><path d="M3820.442,581.238l0,410.004l-198.567,242.013l-4.496,-176.879l-758.667,0c-35.946,0 -65.129,-29.183 -65.129,-65.129l0,-410.004c0,-35.946 29.183,-65.129 65.129,-65.129l896.604,0c35.946,0 65.129,29.183 65.129,65.129l-0.004,-0.004Z" style="fill:#e0f0ff;stroke:#000;stroke-width:26.04px;"/><circle cx="3143.621" cy="785.117" r="48.879" style="fill:#3a7fff;"/><circle cx="3307.008" cy="785.117" r="48.879" style="fill:#3a7fff;"/><circle cx="3470.396" cy="785.117" r="48.879" style="fill:#3a7fff;"/></g><g><path d="M2658.092,2995.783l0,-410.004l198.567,-242.012l4.496,176.879l967,0c35.946,0 65.129,29.183 65.129,65.129l0,410.004c0,35.946 -29.183,65.129 -65.129,65.129l-1104.938,0c-35.946,0 -65.129,-29.183 -65.129,-65.129l0.004,0.004Z" style="fill:#e0f0ff;stroke:#000;stroke-width:26.04px;"/><circle cx="3459.913" cy="2791.904" r="48.879" style="fill:#3a7fff;"/><circle cx="3296.525" cy="2791.904" r="48.879" style="fill:#3a7fff;"/><circle cx="3133.138" cy="2791.904" r="48.879" style="fill:#3a7fff;"/></g><g><path d="M687.5,1694.992l0,508.738c0,32.433 -26.333,58.767 -58.767,58.767l-112.746,0l0.308,174.204l-197.721,-174.204l-193.138,0c-32.433,0 -58.767,-26.333 -58.767,-58.767l0,-508.738c0,-32.433 26.333,-58.767 58.767,-58.767l503.296,0c32.433,0 58.767,26.333 58.767,58.767Z" style="fill:#e0f0ff;stroke:#000;stroke-width:26.04px;"/><g><path d="M305.64,1989.098c-10.581,-8.138 -20.439,-16.025 -28.638,-26.046c-18.509,-22.62 -29.616,-51.524 -29.616,-83c0,-72.419 58.795,-131.214 131.214,-131.214c72.419,0 131.214,58.795 131.214,131.214c0,26.731 -8.012,51.603 -21.758,72.349c-7.896,11.914 -20.374,19.329 -28.936,31.229c-13.951,19.39 -19.521,31.127 -26.806,57.131c-4.908,17.521 -28.214,19.698 -53.141,19.987c-13.349,0.154 -34.893,-0.023 -38.519,-12.184c-2.004,-6.721 -10.418,-40.556 -35.009,-59.471l-0.005,0.005Z" style="fill:#e0f0ff;stroke:#000;stroke-width:29.13px;"/><path d="M409.582,2141.799l-0.205,30.311c-6.087,5.099 -14.715,8.539 -23.967,8.805c-8.954,0.256 -17.502,-2.484 -23.818,-6.964l0.219,-31.891" style="fill:none;stroke:#000;stroke-width:29.13px;"/><path d="M429.103,2054.217l0,69.473c-11.014,10.688 -43.474,18.346 -43.474,18.346c0,0 -31.821,-5.379 -43.339,-14.86l0,-66.378" style="fill:none;stroke:#000;stroke-width:29.13px;"/><path d="M400.393,2006.563l-35.092,-0.154l-20.42,-137.025l68.575,-0.821l-13.063,138.004l0,-0.004Z" style="fill:#fff;stroke:#3a7fff;stroke-width:25.83px;"/></g></g><g><circle cx="379.983" cy="486.762" r="43.738" style="fill:#ddffef;stroke:#000;stroke-width:26.04px;"/><circle cx="543.117" cy="486.762" r="43.738" style="fill:#ddffef;stroke:#000;stroke-width:26.04px;"/><circle cx="706.25" cy="486.762" r="43.738" style="fill:#ddffef;stroke:#000;stroke-width:26.04px;"/></g><g><g><path d="M1384.075,882.879l329.85,360.175l445.075,-457.938l288.142,208.388" style="fill:none;stroke:#000;stroke-width:26.04px;"/><circle cx="1384.075" cy="882.879" r="69.462" style="fill:#ff5932;stroke:#ff5932;stroke-width:4.17px;"/><circle cx="1713.925" cy="1243.054" r="69.462" style="fill:#ff5932;stroke:#ff5932;stroke-width:4.17px;"/><circle cx="2159" cy="795.408" r="69.463" style="fill:#ff5932;stroke:#ff5932;stroke-width:4.17px;"/></g><g><circle cx="438.033" cy="938.933" r="50.688" style="fill:none;stroke:#ff5932;stroke-width:26.04px;"/><circle cx="629.558" cy="873.904" r="50.687" style="fill:none;stroke:#ff5932;stroke-width:26.04px;"/><circle cx="823.296" cy="939.483" r="50.687" style="fill:none;stroke:#ff5932;stroke-width:26.04px;"/><circle cx="896.642" cy="1128.062" r="50.687" style="fill:none;stroke:#ff5932;stroke-width:26.04px;"/><circle cx="827.075" cy="1320.579" r="50.688" style="fill:none;stroke:#ff5932;stroke-width:26.04px;"/><circle cx="617.092" cy="1368.871" r="50.687" style="fill:none;stroke:#ff5932;stroke-width:26.04px;"/><circle cx="441.621" cy="1322.825" r="50.687" style="fill:none;stroke:#ff5932;stroke-width:26.04px;"/><circle cx="361.683" cy="1119.192" r="50.687" style="fill:none;stroke:#ff5932;stroke-width:26.04px;"/><path d="M374.675,1178.746l37.696,93.396" style="fill:none;stroke:#ff5932;stroke-width:26.04px;"/><path d="M492.308,1350.758l74.1,22.754" style="fill:none;stroke:#ff5932;stroke-width:26.04px;"/><path d="M667.779,1368.871l108.613,-30.783" style="fill:none;stroke:#ff5932;stroke-width:26.04px;"/><path d="M859.363,1269.892l35.067,-91.146" style="fill:none;stroke:#ff5932;stroke-width:26.04px;"/><path d="M900.808,1077.375c-13.817,-33.475 -41.45,-100.425 -41.45,-100.425" style="fill:none;stroke:#ff5932;stroke-width:26.04px;"/><path d="M776.392,897.133l-88.096,-27.892" style="fill:none;stroke:#ff5932;stroke-width:26.04px;"/><path d="M410.292,983.283l-33.217,87.754" style="fill:none;stroke:#ff5932;stroke-width:26.04px;"/><path d="M574.25,883.188l-82.367,36.742" style="fill:none;stroke:#ff5932;stroke-width:26.04px;"/></g></g></svg>