<?xml version="1.0" encoding="UTF-8" standalone="no"?><!DOCTYPE svg PUBLIC "-//W3C//DTD SVG 1.1//EN" "http://www.w3.org/Graphics/SVG/1.1/DTD/svg11.dtd"><svg width="100%" height="100%" viewBox="0 0 3884 3446" version="1.1" xmlns="http://www.w3.org/2000/svg" xmlns:xlink="http://www.w3.org/1999/xlink" xml:space="preserve" xmlns:serif="http://www.serif.com/" style="fill-rule:evenodd;clip-rule:evenodd;stroke-linecap:round;stroke-linejoin:round;stroke-miterlimit:1.5;"><g id="Mesa-de-trabajo2" serif:id="Mesa de trabajo2"><g><g><g><path d="M1337.024,313.34l0,-110.791c0,-50.63 -33.159,-91.737 -74,-91.737l-1018.712,0c-40.841,0 -74,41.107 -74,91.737l0,671.978l150.006,1.573l88.201,194.44l-7.489,-198.752l861.995,0c40.841,0 74,-41.107 74,-91.737l0,-136.751" style="fill:#ddffef;stroke:#000;stroke-width:31.74px;"/></g></g><g><path d="M530.525,565.606l-79.825,217.243l2.685,86.815l125.968,-4.935l479.732,0l-11.194,-204.794l-85.341,-126.729l-116.974,1.034l-12.281,-33.621l-75.549,53.055l-69.466,-53.217l-20.556,33.782l-43.926,2.037l-93.272,29.331Z" style="fill:#7dc3ff;"/></g><g><g><path d="M1225.511,393.539l17.875,55.01l57.841,0l-46.795,33.999l17.873,55.013l-46.795,-33.999l-46.795,33.999l17.873,-55.013l-46.795,-33.999l57.841,0l17.875,-55.01Z" style="fill:#ff5932;stroke:#ff5932;stroke-width:31.71px;"/></g><g><path d="M1434.815,393.539l17.875,55.01l57.841,0l-46.795,33.999l17.873,55.013l-46.795,-33.999l-46.795,33.999l17.873,-55.013l-46.795,-33.999l57.841,0l17.875,-55.01Z" style="fill:#ff5932;stroke:#ff5932;stroke-width:31.71px;"/></g><g><path d="M1645.001,393.539l17.875,55.01l57.841,0l-46.795,33.999l17.873,55.013l-46.795,-33.999l-46.795,33.999l17.873,-55.013l-46.795,-33.999l57.841,0l17.875,-55.01Z" style="fill:#ff5932;stroke:#ff5932;stroke-width:31.71px;"/></g></g><g><path d="M585.085,659.931l-11.464,194.157" style="fill:none;stroke:#000;stroke-width:31.7px;"/></g><g><path d="M667.724,537.222l28.872,54.08l34.2,5.67l21.823,-40.557l21.297,40.557l23.043,-5.481l48.615,-57.255" style="fill:none;stroke:#000;stroke-width:31.7px;"/></g><g><path d="M774.048,594.922l-9.338,24.688l32.25,128.33l-39.213,69.705l-47.358,-64.532l27.8,-133.938l-6.14,-22.207l21.73,-41.254l20.27,39.208Z" style="fill:none;stroke:#000;stroke-width:31.72px;"/></g><g><path d="M931.898,668.481l-1.212,185.607" style="fill:none;stroke:#000;stroke-width:31.7px;"/></g><g><path d="M728.635,300.807c0,0 -72.271,73.221 -72.271,87.226c0,59.871 48.609,108.48 108.48,108.48c59.872,0 108.48,-48.609 108.48,-108.48c0,-10.435 -4.232,-30.083 -4.232,-30.083l-140.458,-57.143Z" style="fill:#fff;stroke:#000;stroke-width:31.72px;"/></g><g><path d="M776.381,382.896l0,15.246" style="fill:none;stroke:#000;stroke-width:31.71px;"/></g><g><path d="M727.286,382.896l0,15.246" style="fill:none;stroke:#000;stroke-width:31.71px;"/></g><g><path d="M922.439,353.091c31.982,-14.88 50.483,-50.499 42.475,-86.324c-9.241,-41.341 -50.309,-67.403 -91.65,-58.162c-25.81,5.769 -45.665,23.945 -54.692,46.846" style="fill:none;stroke:#000;stroke-width:31.7px;"/></g><g><path d="M833.891,471.544c14.802,-2.994 27.588,-1.024 47.253,-16.537c22.085,-17.423 36.381,-50.653 39.18,-66.379c4.817,-27.06 1.247,-53.689 -8.841,-77.212" style="fill:none;stroke:#000;stroke-width:31.72px;"/></g><g><path d="M818.573,255.45c-16.059,-6.686 -39.577,-11.088 -58.045,-11.088c-74.986,0 -150.826,50.487 -150.826,131.77c0,0.317 -24.403,47.802 -24.403,47.802l19.204,48.98" style="fill:none;stroke:#000;stroke-width:31.72px;"/></g></g><g><path d="M1546.061,2000.509l13.022,-496.144l12.348,-85.47c0,0 -1.285,-36.121 0,-78.44c5.7,-187.705 178.119,-377.4 415.695,-371.606c146.3,3.567 264.036,73.788 332.937,166.525c43.029,57.914 202.38,810.218 202.38,810.218" style="fill:none;stroke:#000;stroke-width:31.68px;"/></g><g><path d="M1735.613,1774.031l-9.025,293.486" style="fill:none;stroke:#000;stroke-width:31.68px;"/></g><g><path d="M2209.12,1743.445l-9.025,293.486" style="fill:none;stroke:#000;stroke-width:31.68px;"/></g><g><path d="M2130.763,1812.095l-9.025,293.486" style="fill:none;stroke:#000;stroke-width:31.68px;"/></g><g><path d="M1647.74,1659.463l-9.025,356.658" style="fill:none;stroke:#000;stroke-width:31.68px;"/></g><g><path d="M2280.814,1381.394l9.025,726.734" style="fill:none;stroke:#000;stroke-width:31.68px;"/></g><g><path d="M2280.385,1574.177c-24.11,158.839 -161.39,280.72 -326.912,280.72c-182.503,0 -330.666,-148.164 -330.666,-330.666l0,-110.222" style="fill:none;stroke:#000;stroke-width:31.68px;"/></g><g><path d="M1917.235,1487.147l-0,55.939" style="fill:none;stroke:#000;stroke-width:31.7px;"/></g><g><path d="M1766.16,1487.147l-0,55.939" style="fill:none;stroke:#000;stroke-width:31.7px;"/></g><g><path d="M1150.285,2498.909c0,0 113.069,-276.859 174.888,-428.222c22.838,-55.905 81.923,-87.964 141.242,-76.626c145.575,27.833 418.746,31.869 485.182,44.573c10.55,2.015 376.83,-48.081 535.796,-88.693c61.863,-15.803 126.548,12.471 156.969,68.609c37.368,68.961 276.053,509.459 390.218,720.147c20.338,37.545 23.424,82.056 8.446,122.044c-14.971,39.989 -46.533,71.525 -86.534,86.471c-325.514,121.641 -1037.801,387.812 -1037.801,387.812l-69.282,-182.654l-623.542,-100.774l-75.581,-552.685Z" style="fill:#3a7fff;stroke:#3a7fff;stroke-width:31.68px;"/></g><g><path d="M1550.574,2294.151l-111.148,487.182" style="fill:none;stroke:#000;stroke-width:31.68px;"/></g><g><g><path d="M1573.449,2803.026c3.315,-2.687 7.249,-5.718 12.132,-9.312c14.248,-10.499 33.658,-10.556 47.966,-0.138c13.303,9.685 19.349,26.343 15.621,42.131c11.042,-7.181 28.479,-14.041 43.051,-15.451c12.89,-1.248 24.204,1.293 32.268,5.406c6.686,3.408 15.767,10.787 22.887,23.397c9.725,17.23 19.969,53.137 21.181,57.578c1.232,4.526 6.086,18.733 1.84,58.619c-1.917,17.959 -15.467,32.495 -33.248,35.664c-0.896,0.158 -1.791,0.288 -2.687,0.385c-6.196,4.595 -13.725,7.444 -21.825,7.914c-0.766,0.045 -1.532,0.065 -2.294,0.065c-13.782,3.558 -19.058,2.52 -24.824,0.823l-13.295,-6.321l-10.625,-10.661c-4.06,3.736 -8.692,7.343 -13.992,10.803c-12.209,7.975 -27.754,8.789 -40.725,2.131c-12.975,-6.654 -21.379,-19.759 -22.024,-34.326c-0.138,-3.096 -0.665,-13.559 1.325,-28.665l-7.663,-0.393c-1.029,2.914 -2.188,5.653 -3.505,8.21c-9.101,17.66 -19.888,24.577 -27.154,27.806l-10.264,3.181l-11.65,0.592l-11.079,-2.338l-8.963,-4.271l-10.726,-9.065c-2.739,-3.088 -5.45,-6.925 -7.841,-11.464c-2.002,-3.805 -4.008,-9.494 -5.774,-15.281l-18.466,-2.127l-11.764,-5.961l-10.568,-10.787l-6.512,-14.819l-0.908,-16.395l3.505,-13.243l9.276,-13.899c4.538,-4.802 18.746,-13.559 56.415,-67.68c12.797,-18.389 38.115,-22.927 56.504,-10.126c6.694,4.66 11.553,10.977 14.406,18.02Z" style="fill:#fff;"/></g><g><path d="M1508.372,2793.393c-17.778,21.608 -102.31,95.886 -54.471,131.765c6.25,4.694 18.799,9.583 30.222,7.184c17.845,-3.746 58.499,-64.665 77.036,-96.551c16.275,-27.985 -0.14,-43.035 -8.944,-50.101c-8.792,-7.067 -32.364,-6.24 -43.844,7.703Z" style="fill:none;stroke:#000;stroke-width:31.76px;"/></g><g><path d="M1768.214,2947.851c-0.085,-14.468 1.047,5.987 0.633,-10.708c-1.034,-41.787 -11.791,-86.178 -75.616,-111.428c-59.675,-23.607 -121.565,153.106 -95.414,166.637c12.023,6.218 52.97,41.471 91.301,-85.497" style="fill:none;stroke:#000;stroke-width:31.76px;"/></g><g><path d="M1633.339,2857.147c39.4,-63.315 -36.622,-93.22 -65.265,-51.279" style="fill:none;stroke:#000;stroke-width:31.76px;"/></g><g><path d="M1499.673,2921.945c-16.705,32.761 5.85,54.979 20.595,59.733c36.018,11.606 77.071,-63.836 82.278,-68.866" style="fill:none;stroke:#000;stroke-width:31.71px;"/></g></g><g><path d="M2513.892,2319.347l125.968,455.387l-688.264,274.667" style="fill:none;stroke:#000;stroke-width:31.68px;"/></g><g><path d="M2907.54,2771.315l-267.682,0" style="fill:none;stroke:#000;stroke-width:31.68px;"/></g><g><path d="M1622.807,1414.008l141.668,-170.997l145.604,-1.15l366.222,347.656" style="fill:none;stroke:#000;stroke-width:31.68px;"/></g><g><path d="M159.747,2346.607c-14.203,-0.088 -27.404,7.294 -34.761,19.443c-7.357,12.15 -7.785,27.278 -1.121,39.819c87.56,164.81 329.822,620.84 385.204,725.085c6.998,13.176 20.703,21.415 35.624,21.415c-0,0 1120.508,-0 1284.724,-0c11.041,-0 19.991,-8.95 19.991,-19.991c-0,-29.183 -0,-83.33 -0,-114.242c-0,-12.828 -10.399,-23.227 -23.227,-23.227c-91.75,-0 -423.96,-0 -423.96,-0c0,0 -264.464,-508.962 -322.604,-620.859c-6.897,-13.271 -20.571,-21.641 -35.529,-21.736c-124.047,-0.8 -688.038,-4.44 -884.34,-5.706Z" style="fill:#fff;stroke:#000;stroke-width:31.68px;"/></g><g><path d="M1394.854,2995.53l-942.713,14.956" style="fill:none;stroke:#000;stroke-width:31.74px;"/></g><g><g><g><path d="M2597.468,529.783l0,-110.791c0,-50.63 33.159,-91.737 74,-91.737l1018.712,0c40.841,0 74,41.107 74,91.737l0,671.978l-887.659,1.573l-88.201,194.44l7.489,-198.752l-124.341,0c-40.841,0 -74,-41.107 -74,-91.737l0,-136.751" style="fill:#ddffef;stroke:#000;stroke-width:31.74px;"/></g><g><ellipse cx="2852.449" cy="416.828" rx="24.078" ry="24.078" style="fill:#ddffef;"/></g><g><ellipse cx="2782.403" cy="416.828" rx="24.078" ry="24.078" style="fill:#ddffef;"/></g><g><ellipse cx="2707.979" cy="416.828" rx="24.078" ry="24.078" style="fill:#ddffef;"/></g></g><g><path d="M3146.309,819.438l0,-85.09c0,0 24.652,-176.971 31.794,-194.976c23.184,-58.432 80.244,-99.797 146.89,-99.797c87.181,0 140.402,70.78 157.96,157.96c2.753,13.664 26.046,144.24 26.046,144.24" style="fill:#fff;stroke:#000;stroke-width:31.72px;"/></g><g><path d="M3324.005,507.686c33.157,-0.387 97.53,96.927 97.53,97.53c0,53.828 -43.702,97.53 -97.53,97.53c-53.829,0 -97.53,-43.702 -97.53,-97.53c0,-1.375 51.775,-96.997 97.53,-97.53Z" style="fill:none;stroke:#000;stroke-width:31.72px;"/></g><g><path d="M3351.145,584.607l0,16.739" style="fill:none;stroke:#000;stroke-width:31.72px;"/></g><g><path d="M3297.241,584.607l0,16.739" style="fill:none;stroke:#000;stroke-width:31.72px;"/></g><g><path d="M3224.408,771.644l3.097,-167.207" style="fill:none;stroke:#000;stroke-width:31.71px;"/></g><g><path d="M3418.226,771.644l3.097,-167.207" style="fill:none;stroke:#000;stroke-width:31.71px;"/></g><g><g><path d="M2463.368,604.436l17.875,55.01l57.841,0l-46.795,33.999l17.873,55.013l-46.795,-33.999l-46.795,33.999l17.873,-55.013l-46.795,-33.999l57.841,0l17.875,-55.01Z" style="fill:#ff5932;stroke:#ff5932;stroke-width:31.71px;"/></g><g><path d="M2672.671,604.436l17.875,55.01l57.841,0l-46.795,33.999l17.873,55.013l-46.795,-33.999l-46.795,33.999l17.873,-55.013l-46.795,-33.999l57.841,0l17.875,-55.01Z" style="fill:#ff5932;stroke:#ff5932;stroke-width:31.71px;"/></g><g><path d="M2882.858,604.436l17.875,55.01l57.841,0l-46.795,33.999l17.873,55.013l-46.795,-33.999l-46.795,33.999l17.873,-55.013l-46.795,-33.999l57.841,0l17.875,-55.01Z" style="fill:#ff5932;stroke:#ff5932;stroke-width:31.71px;"/></g></g><g><path d="M3645.737,1077.446l-74.466,-284.017l-65.771,-39.398c0,0 -86.984,21.116 -147.887,35.9c-37.989,9.222 -77.817,8.21 -115.269,-2.927c-48.721,-14.489 -110.882,-32.973 -110.882,-32.973l-63.738,51.654l-51.921,269.746" style="fill:#7dc3ff;stroke:#000;stroke-width:31.59px;"/></g></g><g><g><path d="M825.023,1654.236l0,432.85c0,14.263 -11.576,25.84 -25.836,25.84l-240.335,0l-61.29,88.177l-60.597,-88.177l-77.382,0c-14.26,0 -25.836,-11.577 -25.836,-25.84l0,-432.85c0,-14.256 11.576,-25.833 25.836,-25.833l439.603,0c14.26,0 25.836,11.577 25.836,25.833Z" style="fill:#e0f0ff;stroke:#000;stroke-width:31.7px;"/></g><g><path d="M507.815,2000.812l143.138,0.403" style="fill:none;stroke:#000;stroke-width:31.68px;"/></g><g><path d="M588.195,1789.019c-29.628,-31.416 -137.759,30.138 -102.758,97.166c4.302,8.238 19.424,40.442 50.652,27.297c30.037,-12.641 53.467,-25.276 53.713,-70.057c5.335,45.002 30.894,60.906 30.894,60.906c0,0 42.363,-24.696 59.533,-53.725" style="fill:#e0f0ff;stroke:#000;stroke-width:31.68px;"/></g></g><g><g><path d="M3728.03,1764.896l0,432.85c0,14.263 -11.576,25.84 -25.836,25.84l-420.825,0l-61.29,88.177l-60.597,-88.177l-77.382,0c-14.26,0 -25.836,-11.577 -25.836,-25.84l0,-432.85c0,-14.256 11.576,-25.833 25.836,-25.833l620.094,0c14.26,0 25.836,11.577 25.836,25.833Z" style="fill:#e0f0ff;stroke:#000;stroke-width:31.7px;"/></g><g><path d="M3230.332,2111.473l143.138,0.403" style="fill:none;stroke:#000;stroke-width:31.68px;"/></g></g></g></svg>