<?xml version="1.0" encoding="UTF-8" standalone="no"?><!DOCTYPE svg PUBLIC "-//W3C//DTD SVG 1.1//EN" "http://www.w3.org/Graphics/SVG/1.1/DTD/svg11.dtd"><svg width="100%" height="100%" viewBox="0 0 2480 3734" version="1.1" xmlns="http://www.w3.org/2000/svg" xmlns:xlink="http://www.w3.org/1999/xlink" xml:space="preserve" xmlns:serif="http://www.serif.com/" style="fill-rule:evenodd;clip-rule:evenodd;stroke-linecap:round;stroke-linejoin:round;stroke-miterlimit:1.5;"><rect id="Mesa-de-trabajo1" serif:id="Mesa de trabajo1" x="0" y="0" width="2478.012" height="3733.333" style="fill:none;"/><g><path d="M2301.783,2746.404l-166.375,-6.938" style="fill:none;stroke:#000;stroke-width:26.04px;"/><path d="M2267.258,2866.458l-179.858,-13.371" style="fill:none;stroke:#000;stroke-width:26.04px;"/><path d="M1196.992,2364.888c315.567,0 581.65,-19.033 581.65,-19.033l159.75,-31.863c0,0 93.908,86.717 120.925,224.579c5.396,27.525 -33.079,91.6 -31.725,126.042c5.879,149.637 13.454,109.117 -138.246,271.983c-32,34.354 -32.763,51.379 -291.408,45.708c-57.275,-1.254 -49.208,-136.804 -173.317,-157.571c-38.513,-6.442 -97.108,5.583 -151.746,-131.983c-37.267,-93.842 -153.608,-284.067 -117.767,-319.404"/><path d="M1170.996,2344.033c6.112,-7.604 15.487,-12.479 25.996,-12.479c298.108,0 551.883,-17.05 577.208,-18.804l157.671,-31.45c10.463,-2.087 21.296,0.963 29.133,8.2c0,0 101.813,93.604 131.021,242.658c2.954,15.079 -1.575,38.554 -10.508,63.85c-8.317,23.546 -21.312,49.729 -20.621,67.292c2.583,65.708 4.263,97.988 -3.867,124.542c-5.637,18.417 -15.346,34.746 -32.971,55.279c-21.017,24.483 -55.246,57.058 -110.321,116.188c-34.875,37.446 -34.625,62.496 -316.533,56.312c-28.208,-0.617 -49.396,-17.508 -67.05,-46.771c-9.854,-16.333 -19.192,-37.283 -32.367,-57.421c-15.717,-24.025 -37.963,-47.017 -78.671,-53.829c-22.375,-3.742 -50.287,-3.317 -80.837,-20.742c-30.379,-17.325 -64.821,-52.338 -96.383,-131.817c-26.279,-66.167 -91.438,-179.979 -115.871,-254.479c-7.742,-23.608 -11.542,-44.137 -10.95,-59.529c0.704,-18.333 7.096,-32.033 16.633,-41.433c10.696,-10.542 26.733,-12.379 39.292,-5.575l-0.004,0.008Zm11.158,50.708c0.812,6.387 3.158,22.692 7.212,35.054c24.079,73.421 88.588,185.442 114.483,250.65c23.079,58.108 45.242,85.846 67.45,98.512c22.042,12.571 42.671,10.2 58.812,12.9c74.692,12.496 110.396,58.504 135.258,102.608c8.087,14.346 14.846,28.325 21.862,39.954c2.321,3.85 4.633,7.383 7.133,10.408c1.446,1.75 2.15,4.104 4.296,4.15c101.121,2.217 161.913,1.021 200.463,-3.525c45.004,-5.308 51.221,-15.896 65.825,-31.579c45.479,-48.829 76.633,-79.363 97.808,-102.225c16.558,-17.875 26.183,-29.15 30.525,-43.329c6.683,-21.829 3.121,-48.4 1,-102.408c-0.804,-20.508 8.967,-50.167 19.417,-78.467c4.025,-10.904 7.983,-21.592 10.575,-31.15c1.229,-4.525 2.917,-8.333 2.329,-11.321c-19.237,-98.175 -75.229,-168.212 -99.446,-194.758l-141.996,28.325c-1.367,0.271 -2.75,0.458 -4.142,0.558c0,0 -267.175,19.121 -584.029,19.121c-5.329,0 -10.367,-1.254 -14.837,-3.479Z" style="fill-opacity:0;"/><path d="M614.192,1562.617c-2.867,119.908 -52.375,-96.908 -66.054,22.842c33.979,44.971 128.35,626.304 147.083,668.638c51.933,117.363 146.329,63.233 146.329,63.233c0,0 220.542,-273.333 261.712,-315.146c33.354,-33.871 0.929,142.963 0,155.542c-3.129,42.275 -7.471,106.2 24.483,149.258c72.683,97.929 323.246,41.729 409.775,42.996c244.475,3.587 479.237,-47.488 479.237,-47.488l53.604,-75.367l211.554,-56.9l117.8,-226.121l-103.929,-162.121c0,0 -184.683,-267.287 -342.65,-417.492c-53.225,-50.612 -379.8,-12.221 -553.388,-80.617c-82.033,-32.321 -131.942,8.938 -190.375,57.854c-37.917,31.742 -90.892,54.65 -119.579,103.758c-163.621,280.083 -312.475,487.1 -312.475,487.1l-114.129,-369" style="fill:#fff;"/><path d="M597.888,1533.546c5.046,-2.837 10.9,-4.4 17.104,-4.25c9.633,0.229 18.217,4.533 24.146,11.221c3.787,-3.958 8.604,-7.037 14.204,-8.767c17.575,-5.438 36.258,4.421 41.696,21.996l93.992,303.904c54.504,-79.279 159.75,-236.842 271.983,-428.967c30.742,-52.621 86.337,-78.492 126.962,-112.504c68.358,-57.229 128.025,-101.121 223.992,-63.308c118.883,46.842 311.229,41.446 433.725,51.604c34.771,2.883 64.425,7.017 86.333,13.25c19.925,5.671 34.667,13.671 44.079,22.617c159.971,152.112 347.104,422.7 347.104,422.7c0.217,0.317 0.429,0.638 0.638,0.958l103.929,162.121c6.446,10.058 7.021,22.796 1.5,33.392l-117.8,226.121c-4.312,8.275 -11.892,14.367 -20.904,16.787l-199.987,53.792l-46.663,65.608c-4.808,6.763 -11.967,11.487 -20.075,13.25c0,0 -238.475,51.892 -486.812,48.246c-52.171,-0.767 -163.688,19.146 -260.325,14.033c-75.321,-3.988 -141.567,-24.475 -175.725,-70.496c-36.838,-49.633 -34.567,-122.854 -30.962,-171.583c0.4,-5.392 6.592,-40.988 10.9,-77.213c-77.546,91.675 -213.429,260.208 -213.429,260.208c-2.596,3.221 -5.771,5.929 -9.358,7.983c0,0 -45.617,26.221 -97.179,13.117c-32.771,-8.329 -69.625,-31.683 -96.213,-91.779c-13.283,-30.021 -64.871,-327.417 -105.975,-518.871c-10.225,-47.613 -19.796,-88.45 -27.996,-116.35c-3.688,-12.542 -9.242,-26.279 -9.75,-27.525c-4.792,-6.704 -6.933,-14.954 -5.996,-23.163c2.888,-25.283 8.329,-39.742 13.067,-47.204c3.329,-5.25 7.017,-8.967 10.596,-11.692l11.829,-6.196l10.825,-1.85l10.025,1.029c5.962,1.396 12.471,4.396 18.775,9.746c2.479,2.104 5.087,4.838 7.75,8.033l-0.004,0Zm43.767,73.225c-0.242,0.671 -0.483,1.296 -0.725,1.875l-8.263,12.996l-12.404,8.779l-13.121,2.996l-7.137,-0.883c7.3,27.421 15.433,62.554 23.942,102.183c40.054,186.554 88.817,476.642 101.758,505.892c14.967,33.825 33.225,49.454 51.671,54.142c18.25,4.638 34.987,-0.742 42.863,-4.079c32.096,-39.692 221.321,-273.333 259.275,-311.875c6.275,-6.371 12.237,-9.754 17.092,-11.621l9.837,-2.4l11.912,0.6l11.3,4.438l8.213,6.587c3.829,4.042 7.654,9.867 10.142,17.921c3.358,10.883 4.362,31.733 2.608,56c-3.192,44.242 -13.592,102.825 -14.117,109.875c-2.65,35.829 -9.079,90.438 18.008,126.929c24.008,32.346 72.775,40.854 125.717,43.654c95.7,5.062 206.117,-14.879 257.783,-14.121c207.588,3.046 408.062,-33.946 459.183,-44.158l46.008,-64.683c4.487,-6.308 11.029,-10.858 18.504,-12.871l197.412,-53.096l102.112,-196.008l-93.221,-145.408c-8.917,-12.867 -185.854,-267.254 -337.846,-411.779c-4.825,-4.588 -13.938,-6.5 -25.321,-9.067c-17.596,-3.967 -39.604,-6.6 -64.658,-8.675c-127.917,-10.608 -328.517,-7.104 -452.658,-56.017c-68.146,-26.85 -108.221,11.767 -156.758,52.4c-19.475,16.304 -42.767,30.412 -64.921,46.679c-17.975,13.196 -35.321,27.875 -47.271,48.338c-164.512,281.608 -314.196,489.746 -314.196,489.746c-7.383,10.271 -19.946,15.475 -32.429,13.438c-12.483,-2.037 -22.742,-10.962 -26.479,-23.05l-103.821,-335.675l0.004,0Z" style="fill-opacity:0;"/><path d="M1864.146,2082.725c-47.071,-3.046 -100.213,29.221 -125.675,47.025c-9.987,7.046 -22.275,10.054 -34.388,8.417c-35.029,-4.562 -111.1,-11.342 -169.842,5.725c-57.042,16.575 -121.833,53.458 -158.821,76.3c-7.246,4.479 -16.154,5.354 -24.133,2.362c-7.975,-2.987 -14.121,-9.5 -16.642,-17.637c-29.642,-95.858 -111.504,-360.804 -129.45,-411.275c-10.233,-28.787 16.792,-50.925 47.663,-70.042c4.896,-3.029 88.067,-53.975 185.171,-62.179c115.15,-9.725 171.358,9.2 171.358,9.2c0,0 40.346,-66.038 194.008,-76.996c72.158,-5.146 140.054,4.554 182.296,12.983c26.713,5.454 47.35,26.733 51.983,53.6c16.933,91.929 55.012,299.029 55.054,305.112c-66.9,-2.058 -159.633,-104.013 -160.037,-59.721c-0.513,55.708 14.867,127.237 -1.3,162.487c-3.229,7.042 -23.721,-51.371 -28.25,-41.258c-21.821,48.713 -21.112,-16.804 -38.992,55.9l-0.004,-0.004Z" style="fill:#3a7fff;"/><path d="M1217.842,1343.904c0,0 40.942,-293.929 52.804,-323.829c38.504,-97.05 133.275,-165.75 243.967,-165.75c144.796,0 233.183,117.554 262.35,262.35c4.571,22.696 43.254,210.562 43.254,210.562" style="fill:#fff;stroke:#000;stroke-width:26.04px;"/><path d="M2162.25,1986.138c-112.204,0 -220.579,-89.404 -220.579,-89.404l-2.408,155.45c0,0 -77.479,103.125 -123.758,174.942c570.213,-3.112 460.692,-53.583 581.892,-266.854c30.167,-53.087 -273.65,-413.946 -410.633,-572.221c-40.037,-46.142 -101.1,-68.292 -161.412,-58.55c-72.567,11.717 -170.742,27.575 -238.633,38.542c-52.138,8.421 -105.392,6.967 -156.988,-4.296c-32.492,-7.092 -71.383,-15.579 -109.104,-23.808c-90.725,-19.8 -183.879,21.083 -230.725,101.258c-99.258,169.867 -260.275,445.429 -285.767,489.054c-0.721,1.238 -2.042,2 -3.475,2.008c-1.433,0.008 -2.763,-0.737 -3.5,-1.962c-8.075,-13.388 -27.204,-45.108 -27.204,-45.108" style="fill:none;stroke:#000;stroke-width:26.04px;"/><path d="M1103.267,2002.183c0,0 -150.796,189.083 -234.633,294.208c-13.425,16.833 -33.683,26.767 -55.213,27.071c-21.529,0.304 -42.062,-9.05 -55.958,-25.5l-0.004,-0.004" style="fill:none;stroke:#000;stroke-width:26.04px;"/><path d="M1125.196,1777.183c0,0 -21.346,366.488 -21.929,479.625c-0.371,71.679 103.458,120.946 225.858,116.221c179.342,-6.925 680.129,-66.271 680.129,-66.271c0,0 9.717,6.063 24.425,-19.492c15.567,-27.038 36.688,-60.146 36.688,-60.146" style="fill:none;stroke:#000;stroke-width:26.04px;"/><path d="M1162.104,2364.888c0,0 -486.542,515.496 -581.783,636.929c-122.504,156.196 132.596,424.662 297.967,306.517c106.587,-76.15 604.967,-492.596 604.967,-492.596" style="stroke:#fff;stroke-width:26.04px;"/><path d="M1607.533,2619.883c0,0 -180.888,264.421 -342.967,501.346c-40.837,59.696 -41.137,138.262 -0.754,198.271c40.383,60.008 113.275,89.317 183.958,73.967c239.083,-51.925 487.888,-105.958 487.888,-105.958c3.025,-12.133 146.146,-433.988 203.008,-585.55c15.875,-42.308 27.012,-54.454 26,-69.263c-0.858,-12.504 -21.958,-26.975 -32.088,-19.592c-75.287,54.887 -419.633,348.908 -419.633,348.908" style="stroke:#fff;stroke-width:26.04px;"/><path d="M2021.396,2697.613c42.4,-158.767 48.833,-227.096 -19.533,-292.975" style="stroke:#fff;stroke-width:26.04px;"/><path d="M1607.321,2619.883l-529.929,265.558" style="fill:none;stroke:#fff;stroke-width:26.04px;"/><path d="M2303.075,2738.642c279.088,-16.954 102.225,138.638 59.812,305.837c-2.333,9.204 -27.121,129.008 -37.35,134.738c-17.504,9.804 -64.875,0.246 -271.171,25.871c-1.979,-148.433 -17.079,-151.283 176.567,-173.179c2.058,-60.446 6.283,-151.979 6.283,-151.979c0,0 61.787,-6.767 71.567,-64.25c5.875,-34.546 -5.708,-77.029 -5.708,-77.029l0,-0.008Z" style="fill:#fff;stroke:#000;stroke-width:26.04px;"/><path d="M1516.313,1757.679l27.267,103.013l-205.821,54.479c0,0 -16.983,-32.675 -21.171,-48.504c-4.546,-17.167 -6.096,-54.508 -6.096,-54.508l205.821,-54.479Z" style="fill:#fff;"/><g><path d="M446.379,1405.412c5.188,-4.996 11.483,-10.337 22.787,-18.667c11.7,-8.621 27.637,-8.667 39.392,-0.112c11.75,8.554 16.604,23.733 11.996,37.521c-1.092,3.267 -2.317,6.658 -3.629,10.108c3,0.617 5.888,1.529 8.642,2.721c0.071,0.029 0.146,0.062 0.217,0.096c1.204,-1.246 2.538,-2.487 4.008,-3.708c9.404,-7.787 28.967,-16.192 44.85,-17.729c11.4,-1.104 21.425,1.046 28.554,4.679c5.888,3 13.763,9.608 20.029,20.704c9.671,17.129 19.787,52.863 20.992,57.283c1.204,4.417 5.783,18.275 1.642,57.171c-1.571,14.75 -12.7,26.688 -27.3,29.287c-1.504,0.267 -3.004,0.429 -4.5,0.492c-5.4,4.608 -12.263,7.496 -19.717,7.925c-0.279,0.017 -0.562,0.029 -0.842,0.037c-1.617,0.663 -2.812,1.158 -3.837,1.429l-9.304,1.296l-11.042,-1.521l-11.371,-5.429l-9.442,-9.471l-3.763,-8.479c-5.554,6.338 -12.608,12.317 -21.379,18.046c-10.025,6.546 -22.792,7.217 -33.446,1.75c-10.654,-5.467 -17.558,-16.225 -18.083,-28.188c-0.167,-3.804 -0.917,-18.917 3.304,-40.125c-3.7,1.533 -7.013,2.396 -9.708,2.804l-14.642,-0.733c-1.308,4.8 -2.917,9.204 -4.942,13.133c-8.054,15.625 -17.438,21.904 -23.867,24.763l-8.658,2.683l-9.783,0.496l-9.308,-1.963l-7.558,-3.604c-5.608,-3.467 -11.571,-9.325 -16.071,-17.875c-2.667,-5.067 -5.321,-13.575 -7.362,-21.071c-0.15,0.029 -0.292,0.058 -0.425,0.083c-6.729,1.288 -12.592,1.133 -17.146,0.267l-9.067,-2.95l-6.675,-4.096l-9.183,-10.517l-4.258,-11.346l-0.488,-12.746l2.963,-11.2l7.938,-11.862c4.729,-5.004 19.529,-14.142 58.796,-70.562c10.508,-15.1 31.3,-18.825 46.4,-8.317c9.329,6.492 14.317,16.913 14.288,27.487l-0,0.008Z" style="fill:#fff;"/><path d="M384.792,1379.658c-18.279,22.217 -105.2,98.596 -56.012,135.479c6.429,4.821 19.337,9.858 31.075,7.392c18.346,-3.858 60.158,-66.496 79.217,-99.275c16.733,-28.779 -0.15,-44.258 -9.2,-51.525c-9.046,-7.267 -33.275,-6.417 -45.079,7.929Z" style="fill:none;stroke:#000;stroke-width:26.04px;"/><path d="M651.967,1538.471c-0.083,-14.879 1.083,6.158 0.654,-11.008c-1.071,-42.967 -12.129,-88.617 -77.758,-114.579c-61.362,-24.271 -124.992,157.433 -98.104,171.337c12.367,6.396 54.458,42.642 93.879,-87.912" style="fill:none;stroke:#000;stroke-width:26.04px;"/><path d="M513.288,1445.213c40.513,-65.108 -37.654,-95.862 -67.113,-52.729" style="fill:none;stroke:#000;stroke-width:26.04px;"/><path d="M375.842,1511.829c-17.171,33.692 6.017,56.529 21.179,61.417c37.037,11.942 79.246,-65.637 84.604,-70.8" style="fill:none;stroke:#000;stroke-width:26.04px;"/></g><path d="M1903.138,2036.892l-77.45,-146.383c-62.971,-79.492 -23.325,-150.842 -45.062,-173.042c-2.533,-2.588 -20.9,-21.35 -44.521,-8.242c-15.779,8.758 -6.133,122.275 -53.525,122.325c-39.737,0.046 -119.6,-59.108 -163.062,-82.421c-14.283,-7.658 -24.325,-0.55 -32.754,8.679c-14.3,15.65 -6.971,31.654 -4.3,34.367c20.171,20.454 117.742,77.321 127.267,82.292c-14.425,-2.183 -150.804,-11.267 -168.879,-11.175c-11.087,0.054 -23.225,7.238 -23.112,24.196c0.138,21.121 8.008,26.296 19.596,27.525c12.675,1.346 151.825,18.533 165.829,19.188c-13.383,5.321 -136.558,62.471 -153.975,70.992c-10.658,5.217 -16.862,16.158 -12.742,29.533c6.846,22.233 20.579,20.233 31.875,18.308c17.188,-2.929 125.538,-32.954 171.408,-45.292c42.058,2.9 40.504,17.658 123.521,8.517c2.808,-0.308 33.179,-3.654 34.742,6.408l61.029,118.392" style="fill:#fff;stroke:#000;stroke-width:26.04px;"/><path d="M1512.25,922.217c61.475,-0.717 180.829,179.712 180.829,180.829c0,99.804 -81.025,180.829 -180.829,180.829c-99.804,0 -180.829,-81.025 -180.829,-180.829c0,-2.55 95.992,-179.842 180.829,-180.829Z" style="fill:none;stroke:#000;stroke-width:26.04px;"/><path d="M1562.567,1064.833l0,31.037" style="fill:none;stroke:#000;stroke-width:26.04px;"/><path d="M1462.625,1064.833l0,31.037" style="fill:none;stroke:#000;stroke-width:26.04px;"/><path d="M2053.312,3166.058l254.708,-18.758c0,-27.583 19.217,-120.946 45.462,-190.271c23.529,-62.154 76.329,-166.338 86.704,-193.917" style="fill:none;stroke:#000;stroke-width:26.04px;"/><path d="M2240.338,2971.229l30.375,0" style="fill:none;stroke:#000;stroke-width:26.04px;"/><path d="M2242.429,2921.638l30.375,0" style="fill:none;stroke:#000;stroke-width:26.04px;"/><path d="M1327.592,1339.737l5.608,-236.696" style="fill:none;stroke:#000;stroke-width:26.04px;"/><path d="M1686.946,1339.737l5.608,-236.696" style="fill:none;stroke:#000;stroke-width:26.04px;"/></g><g><path d="M1852.329,585.708l-623.683,0l-195.979,-160.8l143.237,-3.642l0,-281.029c0,-29.108 23.633,-52.742 52.742,-52.742l623.683,0c29.108,0 52.742,23.633 52.742,52.742l0,392.725c0,29.108 -23.633,52.742 -52.742,52.742l0,0.004Z" style="fill:#fff;stroke:#fff;stroke-width:26.04px;"/><path d="M1711.704,438.304l-50.763,50.763l-101.7,-101.7l-101.7,101.7l-50.763,-50.762l101.7,-101.7l-101.7,-101.7l50.763,-50.763l101.7,101.7l101.7,-101.7l50.763,50.763l-101.7,101.7l101.7,101.7Z" style="fill:#ff5932;"/></g><g><ellipse cx="496.988" cy="3543.771" rx="447.917" ry="175" style="fill:#fff;"/><path d="M764.808,406.163l0,3060.892c0,35.371 -37.038,43.254 -82.654,64.088c0,0 -452.988,-3.717 -452.988,-39.088l0,-3108.721c0,-0 211.921,-90.871 307.562,-131.879c27.812,-11.925 60.062,-6.083 81.925,14.838c53.112,50.829 146.154,139.871 146.154,139.871Z" style="fill:#fff;"/><path d="M567.804,975.6l0,2126.208" style="fill:none;stroke:#000;stroke-width:26.04px;"/><path d="M634.329,940.533l0,2126.208" style="fill:none;stroke:#000;stroke-width:26.04px;"/><g><path d="M424.071,529.167l0,3014.604" style="fill:none;stroke:#000;stroke-width:26.04px;stroke-linecap:butt;"/></g><path d="M755.896,3437.521c0,58.642 -116.012,106.25 -258.908,106.25c-142.896,0 -258.908,-47.608 -258.908,-106.25" style="fill:none;stroke:#000;stroke-width:26.04px;stroke-linecap:butt;"/><path d="M238.075,383.333l185.992,187.5l340.738,-150.971" style="fill:#fff;stroke:#000;stroke-width:26.04px;"/><path d="M572.917,450l-11.538,-25" style="fill:none;stroke:#000;stroke-width:26.04px;"/><path d="M362.742,417.433l25,-11.538" style="fill:none;stroke:#000;stroke-width:26.04px;"/><path d="M534.708,3168.679l150.929,-66.871" style="fill:none;stroke:#000;stroke-width:26.04px;"/><path d="M519.633,940.533l150.929,-66.871" style="fill:none;stroke:#000;stroke-width:26.04px;"/></g><ellipse cx="616.083" cy="3265.842" rx="29.238" ry="36.675" style="fill:#ddffef;stroke:#000;stroke-width:26.04px;stroke-linecap:butt;"/><path d="M582.658,299.217c-0.487,28.812 -35.262,51.625 -77.608,50.908c-42.346,-0.717 -76.329,-24.692 -75.842,-53.508c0.488,-28.812 35.262,-51.625 77.608,-50.908c42.346,0.717 76.329,24.692 75.842,53.508Z" style="fill:#fff;stroke:#000;stroke-width:26.04px;stroke-linecap:butt;"/><path d="M513.558,303.421l-11.538,-25" style="fill:none;stroke:#000;stroke-width:26.04px;"/><path d="M428.9,300c0,0 0.246,17.763 0,32.167c-0.488,28.812 33.496,52.787 75.842,53.508c42.346,0.717 77.121,-22.092 77.608,-50.908c0.487,-28.812 0,-26.433 0,-26.433" style="fill:none;stroke:#000;stroke-width:26.04px;stroke-linecap:butt;"/><path d="M645.562,575l0,200l-92.433,41.667l0,-200l92.433,-41.667Z" style="fill:#ddffef;stroke:#000;stroke-width:26.04px;"/></svg>