<svg width="320" height="21" viewBox="0 0 320 21" xmlns="http://www.w3.org/2000/svg">
    <defs>
        <symbol id="tres-olas-originales-perfect-loop">
            <path d="M0,18.1726 
                     C26.67,18.1726, 26.67,2, 53.3333,2 
                     S80,18.1726, 106.6666,18.1726 
                     C133.3366,18.1726, 133.3366,2, 160,2 
                     S186.6633,18.1726, 213.3333,18.1726 
                     C240.0033,18.1726, 240.0033,2, 266.6666,2 
                     S293.33,18.1726, 320,18.1726
                     V21 H0 Z" 
                  fill="#3a7fff" stroke="none" />
            
            <path d="M0,18.1726 
                     C26.67,18.1726, 26.67,2, 53.3333,2 
                     S80,18.1726, 106.6666,18.1726 
                     C133.3366,18.1726, 133.3366,2, 160,2 
                     S186.6633,18.1726, 213.3333,18.1726 
                     C240.0033,18.1726, 240.0033,2, 266.6666,2 
                     S293.33,18.1726, 320,18.1726" 
                  stroke="#3a7fff" stroke-width="4" fill="none" stroke-linecap="round" />
        </symbol>
    </defs>

    <style>
        .onda-animada {
            animation: loop-perfecto 15s linear infinite;
        }
        @keyframes loop-perfecto {
            from { transform: translateX(0); }
            to { transform: translateX(-320px); }
        }
    </style>
    
    <rect width="100%" height="100%" fill="none"/>

    <g class="onda-animada">
        <use href="#tres-olas-originales-perfect-loop" x="0" y="0" />
        <use href="#tres-olas-originales-perfect-loop" x="320" y="0" />
    </g>
</svg>

